<svg xmlns="http://www.w3.org/2000/svg" width="640" height="422" fill="none"><path fill="#214784" d="M348 363c-1-1 0-2 2-2-5 0-5-6-1-7 1 1-2 1-2 2 0 2 3-1 3 1 1 2 2-1 3 0l2 3c0 1-2 2 0 3 1-1 1 1 1 2l-3 2a1 1 0 0 1-1-1v-1l-2 1c-1 0-2-1-2-3l2-2c-2 0-3 1-2 2Zm-20-24 3 3c1 0 3 1 2 2 0 2 3 1 3 3h-1l-4-2c0-2-2-1-1-2-1-2-2 2-2 0s-2-1-2-2l-1-2a3 3 0 0 0 3 0Zm-5-5v1c1-3 3 0 4 2l-4-1v-2Zm-275-5h38c2 0 2 2 0 2-4-1-9 1-14-1-7 1-15 2-23 0l-1-1Zm-45-2c10-1 20-2 31-1 1 1-2 1-3 2-9-1-19 0-29 1l-2-1 3-1Zm303-9c-1-1 1-2 1 0 1-2 4 1 4 1v1c-1 1-2 0-1 1s-1-1-1 1l-4-2c1-1 3 0 2 1l2-1c-2 0-1-3-3-2Zm-11-1c2-1 2 1 4 2l-1 1-2-2c-2 1-3 1-3-1h2Zm139-1-1 2h8c1 2-2 0-2 2-2 1-2-1-4-1l-1 1h-1c-1 0-3-1-3 1-1 1-2-2-2 0l-2 1h-3l2-1h-2l5-3h5c0-1-2 0-2-2h3Zm46-6v2c1 0 3-1 3 1a4 4 0 0 1-5-1h-3c0-3 4 1 4-1l1-1Zm6-2c1-1 2 1 1 1l1-1c3 0 4 3 7 4-1 0 1 2-1 2l-7-1c0-1-2-1-1-2h2c-1-1-4-2-2-3Zm-164-16h2c-2 1 0 3 2 2l3 3c-4 1-8 0-11-2 0-1 4 0 3-2-1-1 1 0 1-1Zm-68-4c2-1 4 3 1 2 1 3-2 0-3 0-1 1 1 1 1 1 0 1-2 0-2-2-1-1 2 1 0 0 1-1 3 1 3-1Zm63-2v2l3 1c-1 3-5-2-3-3Zm-41-2h6c2 1 3 3 3 5-3 2-5-3-8-2 0-1-4-2-1-3Zm-33-8c1 0 1-2 2-1 7 5 14 8 21 11-1 1 2 3 1 1l9 6c-1 1-3-1-4-1s0 1 0 0l1 1a2 2 0 0 0 3 0l5 4c1 2-2-1-2 0l4 3h1l5 2c0 1 2 2 0 3h-1s-2 0-1 1c-1 0-2-3-3-1v-2h-1c-1-2-2-3-5-2l1-2c-1 0-1-2-1 0l-5-2v-1c-1-1 0-2-2-2l-3-2 2-1-8-5-3-1c2 1 0 2 0 0-3 0-4-3-6-3l-1-1h-1c0-2-3 0-2-1l-4-2v1c0-1-3-2-2-3Zm70-3c1 0 3-1 4 1-1 2-3 1-5 1 0-2 3 0 3-2h-2Zm-104-10a2 2 0 0 0 2 1c1 2-2 1-3 2l-2-1c2 0-2-1 0-1 1-1 3 1 3-1Zm-17-1c4-1-1 5-2 2l2-1v-1Zm-14-13 4 2c1-1 3 1 2 1-2 0 0 3 1 1 1 1 0-2 1-2v4c-1-1-2 1 0 0h-2l1 1h-4l-1-2h-3c0-1 2 0 1-1 0-1 2 0 2-2-1 0-3-1-2-2Zm49-1 2 1-2 2c-1 1 3 0 1-1a2 2 0 0 0 2-1l4 2v1c1 0 0-2 1-1l9 4 3 7c-2 1 0 3 1 1 2 3 6 2 7 5l2 5c1 2-1 1-2 1 1-2-2-2-3-2-1-1 0-1 1-1l-1-2c-1 2-3 1-3-1 0 0-2 0-1 1-1 0-3 0-1-1 1-2-3 0-3-2l2-1c0-1 0-2-2-1 0-2-2-3-3-1-1-3 2-3 3-4-2 0 0-2-2-2 1 2-2 1-2 2 0-2-3-3-4-5-2-1-3 2-5 0-1 0-5 0-3-2-2-1-2 2-4 1 1 0-1-2-2 0 0 0-3-3-1-2 1 1 2-2 3 0 2 1 1-2 3-1v-2Zm157-1c0-2 1-1 2-1v2l5 2c2 0 1-1 1-2-1 0 0-2 1-1s3 0 3 2l-3 3c0 1-1 2-2 1l1-1h-3l1-2c-2 1-5-1-7 1l1-1c-1-3-4 0-5 0-2-1-2 1-4 1 0-1-1-2-1 0l-1-2 4 1c0-2-2-1-2-2l8-2 1 1Zm-151-12h3c0 3-6 0-3 0Zm165-1 1 2c-1-1-1 1-2 1h-2l3-3Zm-168 0c2 0 1 2 0 3l-3-1a3 3 0 0 1 3-2Zm5-1a3 3 0 0 1 3 1c-1 0-3 1-3-1-1 1-3 2-3 0h3Zm23-1v1c0-1 0 2 1 1-1 2-2 4-4 4h2c-1 4-5 2-8 3-3-1 2-1 0-1l5-7c1-2 3 1 2 1 2 1 1-1 2-2Zm-93 0v2c-2 0-2 1-1 2l-1 2c-1-1-3 0-2-2 2-1-1-2-1-2l2-1 3-1Zm43 1s-1-2 1-2c-2 2 0 3 2 2l-1 1c2-1 5-3 7-1h6v1h4l-1 1c2 1 0-3 3-2 0 2 2 0 0 0 2-2 5 0 6-2 0 2 2 1 3 1 1 1 4 2 6 1 1 2 1-1 1-1l3 1h2c1 1-1 2-1 3-1 1-3 4-5 2h-11c-3 0-5-2-7-1l-21-2c-1-1 1-2 1-3a1 1 0 0 0 2 1m27 0h-3c0 2 2 1 3 0 0 2 2 1 3 1a3 3 0 0 0-3-1m-5 1a3 3 0 0 0-3 2l3 1c1-1 2-3 0-3Zm3 1c-3 0 3 3 3 0h-3Zm166-3c-1-1 1-3 2-2l7 8c-4 1-6 5-8 7-1-1-1 2-2 1 0-2 0 0-1-1 0-2-2 1-2-1 2 0 5-1 6-3-2 0 0-1-1-2l2-1c1-1-1-3-2-2 0-1-1-1 0 0l-3 1c1 0 1-2 2-1l-1-2-3 3h2c0 2-3 1-2-1 0-1 3-1 1-2 2-2 5 2 5-1 2-1-1 0-2-1Zm-239-2h2c2 0 0 2-1 1-1 0-4-2-1-1Zm128-2 3 4-3 1 1-1-2-1c0 1-2-1 0-1l1-2Zm-69 0c3 2-2 3-3 2l3-2Zm62 0 1 1c1 1 2 0 2 2l3 1-3-1c0 1-2 3-2 1 1 0 1-1 0 0s-3-1-1-2v-2Zm-80-1 5 2v1h-6l2 3c1-1 1-3 2-2v1c-1 3-6 3-9 2l4-5 2-2Zm122-6c3-1 3 5 0 4v1l2-1c1 2-1 3-1 5l1-1v2c-1-1-1 1-1 3l-2 1c-1-2-4 0-2 0 3 1 2 2 0 3 0-1-1-2-2-1 2 1-2 1 0 0-4 1 0 0 1-2-2 1-3 1-2-1-1-1-1 1-1 1l-2-2 3-1c1 1 3 0 4-1l1-2 2-1c-1-1-3 2-2 0v-4c-1-1 2 0 1-1v-2Zm-51-2c1 1-1 2-1 2l-2-1 3-1Zm-56-4 3 1c0-3 2 2 1 1-1-2-1 0-1 1h-2c-1 1-2-2 0-2l-1-1Zm-1-7c2 1-2 2 0 3l-1 2v1c-1 0-4-2-2-2 1-2 0-2-1-1 0-2 4-1 4-3Zm45-12h4c0 2-2 0-3 2 1 2 3-1 3 1-1-1-2 2-3 1s-2-3-1-4Zm-6-8c2 1 5 1 5 4v-2c1 1 3 0 4 2v3l1 1h-4c-1 1 0 3 1 4s2-2 3-1c0-2-2 1-3-1 1-2 3 0 3-2 1 1-1 1 1 2 1 1-1 3-2 3a2 2 0 0 0-2 1l-2-2c-1-5-5-7-5-12Zm-106-1v2c-1 2-4 0-6 0-2 1-3 4-5 4 1-3 5-7 9-5 1 1 1 0 2-1Zm-14-8c4 0-2 2 0 3h3c-1 2-5 1-6 0 1-1 1-3 3-3Zm8-4 2 1-2 1c1 0 3-1 3 1-1 2-4 2-5 1-1-2 1-3 2-4Zm33-3c2-1 2 1 3 1l2 2c-3 1-6-3-8 0-1-2-4 0-6 0 0 1-2 2-3 0l3-2c3-2 6-1 9-1Zm-25 4c1-3 3-6 6-8 0 3-3 4-3 6 3 1 8 5 5 8 0 2 2 1 3 2 2 1 1 4 4 5 0 2 0 1-1 0 1 2-2 1-2 4l5-2c2-3 4-6 8-8 7-4 17-4 26-4 2-2 5 0 8 0l14 2 27 5c2-1 5-1 7 1l7 3 48 9 9 4c6 4 8 13 8 20 0 3 0 7-2 10-3 10-12 16-21 17l-8-1v9l9 3c3 0 4 2 7 3 5 2 9 7 14 10 4-2 8-2 10-5l9-12 12-11 10-8c7-5 16-8 22-15v-2c8 3 14 10 19 16 1 2 2 5 4 4 1-3-3-4-1-6 1-1 0 1 1 1 2 0 0 5 2 3v-7c2 0 1 2 2 2h1c0 1-2 2-1 3 2-1 5-3 3-6l-1 4-1-1c-1-2-3-4-2-6l2 3-1-5c-1-1 0-2 1-2 2 3 4 5 4 9l-1-8c-1-1-2-3 0-3 2 2 2 5 3 8 0 2 2 2 4 1h-2c0-3-1-6-3-8l1-2 2 3c0-1 0-3 2-2l1 6c2 0 0-3 1-3 1-1 1 2 1 2 1 0 0-2 2-1 0 1 0 4 2 4l-2-8 1 3 3 4v-3l3 6c2 1 0-3 1-3 1 1 1 3 2 2 0 0 1-1 1 1 1 2 3 4 5 3l4 2 1-2 4 4c4 7 12 9 19 13l18 10 6-1-11-8c-9-9-20-14-29-23l-10-9c-8-5-14-11-21-18-2-3-4-6-8-7h-2l-9 12c-2 3-4 5-7 6l-11 6c-2 1-3 0-2-2l10-6 5-2c3-6 8-11 12-16a4 4 0 0 1 5-1l4 3 7 8 8 7 20 16 9 8c6 6 14 9 19 15l13 10c2 3 5 1 8 1l27 3 39 4 9 1-4 1-35-3c-12-2-24-4-36-4-3 0 0 1 1 2 3 1 6 5 5 8-3 1-6-2-9-3-5-1-9-4-14-6h-20c-6 0-12-2-18-1-4 0-8-1-12 1-11 1-22 0-33-2l-25 2-14 18c-2 0-1 2-2 2l-7 11c0 1 3 0 3 2l13 6a295 295 0 0 0 26 12h7c5-5 11-9 17-11 3-2 7 0 10-3h5c5-2 11-2 17-2h18c3 0 7 1 10-1 1-1-2-2-1-2 1-3 4-3 6-5 3 0 7 2 10 1 2-3 2-6 2-9 3-5 10-8 15-7l7 5 9 10 18 14c11 8 24 12 33 21l16 7c7 5 14 7 21 9l14 7v2c-1 1-1 4-3 4l-6-2c-16-8-32-14-48-19-6-2-11-5-17-6l-18-5c-7 0-14-2-21-1-6 0-12 2-17 6l-3-2-4-2-10 2-2 2-3 1-2 1c-1-1-4 1-5 1l-23 8c-6 3-13 6-20 7l-14 6c-7 2-15 7-24 6-8 0-16-3-25-3l1 1c-1 0-3 0-3-2l-2 1c-1 0 2-1 0-1-3 2-5-2-7-1l-3-1c-2 0-5-2-7-1 0-2-2-1-3-1l-4-1c0 1 0 2-2 3l-11 11c-1 1-3 1-3 3l12-8c1-3 2-7 6-7 2 0 1 2 3 3 2 0 2 2 4 4 1 2 1 6 5 7 6 5 14 8 20 14 0 5 3 9 3 13-1 1-2 4-4 3l5 11 1 7v4c-1 2-3 1-4 1l-5 4c-2 0-3-3-3-4l-8-13-13-10v4c-1 4 3 9 0 12-2-1 0-4-2-6-1-5 1-10-2-15-2-1-4-3-3-6l5 6 6 5c9 5 15 14 19 23 1 2 3 0 4-1l-6-16-3-6-8-5a1 1 0 0 1 2-1l8 5 6 14c1 3 1 6 3 8 1-1 2 0 2-2-1-3 0-6-2-9-2-4-3-9-6-12-2-1-5-3-5-5 2-1 3 2 5 2 2 1 2 4 4 4 3-4-1-8-1-12-3-5-8-7-12-10l-8-5c-2-1-1 2-2 2-2 0-4 2-6 1l-4-2c-3 3-7 3-10 7 2 3 4 7 4 10 1 5 4 9 4 13l3 14c1 2 4-2 5 0-1 3-8 5-7 1l-3-16-3-9-4-12c-2 0-2-3-5-4l-2-4-8-6a201 201 0 0 1-31-20c-2 2-1 4-2 5l-11 1c-3 0-7 2-10 0h-4l-3-4c-1-3-5-2-5-5v-3a4 4 0 0 0-2 3c-1 0-3-1-1-2-4-2-9-2-14 0 3 3 7 4 11 5l6 7c2 2 6 3 7 6 0 0 0 2-1 1-12-4-22-11-32-18h-10l-3-2-2 3h-8c-2 0-1 4-3 4-4 1-6-1-9-1-5-1-8-6-12-6-5-3-11-4-16-6-2-1-3 1-5 2l-4-2-15 1-8-1c-4 0-9 1-12-1h31c-3-3 0-9-4-10l-11-11h-2l-1-4-7-8c-1-2-5-1-8-1l-1-2c2-2 5 0 6-1-1-1 1 0 2-1h-2v-2c1 1 1-1 0 0 0-1 2-2 1-3h5c0-1 0-2-2-2-1 0-2-3 0-3 1 1 4-2 1-2 2-1-1 0-2-1l-2 4c-2-1-5 0-7-2-3-1-5-4-7-7-1 2 1 5 2 6 3 2 6 5 9 4 0-1 1-2 2-1 1 2-1 3-2 4 0 2-3 4-5 4v2c1 0 1-2 2-1l-5 4c-5-1-9-7-10-12v3c-1 4 4 10 9 9 1 2-3 3-5 3-1 3-4 1-7 2l-3-1c-3 2-6 0-9 1-3 0-5 1-7-1-4 0-6-3-9-3-6-3-12-9-16-15 0-3-3-5-2-9-1-4-4-8-2-13l2-4c-2-4-2-9-1-14 0-9 6-17 10-25 1-3 3-3 5-5 6-4 11-8 18-10 3 0 5-3 8-3 3 1 6-2 8 0 2 0 6-1 7 1l9 3c1 2 3 1 5 2 1 1 1-2 1-2-1-4 2-10 7-8l3 2 5 1a1 1 0 0 1 0 1h-1c-2 0-6 1-7-2-3-2-6 1-6 4v5c-4 0-4 5-6 7l3 2c3 2 7 1 10 3 2-1 4-1 4-3h-4c-2-2-2 1-3 1-2-3-7-1-9-3l3-2c1-1 4-3 1-4 4-1 8 3 11 2 1 2 2-1 3-2 2 0 0-5 0-1-1 1-6 0-4-3 1-1 0-4 2-2-1-1 0 1 0 0 2-1 3 0 4 1-1 2 1 1 1 2 1 1 3 0 2-1-2 0-3-1-4-3h1c0-2 2-1 3 0s1-2 2-1c2 0-3 2-1 3 1 1-1 0-1 1l5 2 2-2 1-7-5-2 2-2 5 3c1 2-2 3-1 5a5 5 0 0 1-2 6l3 3c2-1 6-4 8-2l-1-1c1-1 2-1 1-2l-9 4a1 1 0 0 1 0-2l5-3c2-1 4 0 5-2l1 1c1 4-1 8 1 12l2 3c2 0 1-3 3-2h-2l-2-5c1-1 2 4 3 1v2c0 1 2-2 2 0 0 0-1 2 1 1-2 1-2 4-1 5 1 0 2-2 3-1 1 2 4 1 6 3-1 1 1 0 2 1h4c-1 3-3 0-4 1h-4c1 1 3 1 2 2-1-1-3 0-1 1 0 1-3-1-3 1l8 4c3 0 6 0 7 2 2-1 0-1-1-1-1-1 0-2 1-1l6-3 2-4h-4c0 2-2 2-3 2-2 0-4 2-5 1l-2-1c-1-3 2 1 2-2-1-1 0-2 2-1 0 1 1 2 2 1 2 1 2-2 3 0 1 1 0-2 1-2 2-2 4 0 5-2h2l4-9v-2h1v-7c2 0 2-2 2-3-8 1-16-2-24-1l-21-1c-1 2 3 2 1 3-2 0-5 0-4-3-1 0-3 0-2-2l1-4c-2 0-1 3-3 2 1 0 2-2 1-3 1-1 0-2-2-1 3-1-2-3 1-3-3 0-3-3-1-4-1-2-2-4-5-4-1 3-4 5-5 9l-1-1c0-4 6-6 4-9m53 5 3 4 1-2c1 1 0-1 2-1l-6-1Zm8 0c2 4 6 8 5 13-2 2-1-3-3-2h-3v1h2c-1-1 1 1 0 0 0-2 3 1 1 0l2 2c2-2 3 6 3 2a551 551 0 0 1 39 3l-6-12-40-7m-12 1c-8 0-15 0-21 3-3 1-7 3-7 7a248 248 0 0 1 36 0c-1-1 0-3-2-4h-1c-1-3-2-7-6-6m11 0c1 3-3 4-1 6 1-2 0 2 2 1 2 1 0-2-2-2 0-2 5-1 3 1 3-1-2-4-2-6Zm3 6c-1 1 0 3 2 3l-2-3Zm42 0c0 5 4 7 5 12l2 2a2 2 0 0 1 2-1c1 0 4-2 2-3s1-1-1-2c1-1-1-1-1-1v-3l-4-2v2c0-3-3-3-5-4m12 5 2 8 1 2 12 2c3 0 7 1 9 3 0 1 3 2 1 3l-21-3c0 3-4 2-5 1 0 2-1 1-2 0-1 1-2-1-2 1v1c1-2 3-1 3 1l-2 1c-1-1-2 3 0 2-1 2 2 2 3 3l1-7h2v7c2 0 1-2 1-4 0-1 0-4 1-2 2-1 2 3 2 4 1 1 0 3-1 4l-3-1c-2 2-2 5-3 7 1 1 2-1 3-1-1-1 0-1 0 0v-2c2 0 4 0 4 2-2 1 1 1 2 1 0 2 1-1 2 0-1 2 1 2 2 2l1 4-1 1-1-2c-1 1 1 2-1 2 1-1-2 0-1 1l4 1c0 2-2 1-2 1v1c2 0 4-3 5 0-1 2 1 2 2 0-1-2 1-1 2 0h2c-1-2 1-3 3-2l1 1-3 1h4c-2-1 2-2 2 0h3l-3-2c-1-1 1-1 1-1 1 0 2 2 3 1 1 0 3 0 2-1 0-1 2 0 1-1l-4-1h3c-1-1 2-1 1 1 1 0 4 2 2 2h-1c0 1-2 1-1 2 2 0 3-3 6-2h3c-1 2-3 0-4 2 2 1 5-1 7-1a3 3 0 0 0 0 3s-3 0-2 1c1 2 3-1 5-1 1 0 2 3 4 1 3-4 5-9 6-14 0-6-1-12-4-18-5-4-11-7-17-8l-40-7m-90 0h-6l-1 1 21 1c6 1 12 0 18 2-1-2-2-1-3-2-10-2-20-1-29-2Zm45 5v2c2-1 4 0 6 1l31 4a318 318 0 0 0-37-7m-119 1c-3 0-3 3-1 3 2 2 1-3 1-3Zm6 0c-1 2-2 5 1 5-1-2 1-5-1-5Zm110 2-1 1c2 2 0 4 0 6l3 1c1 0 3-2 3 0-2 2-7-1-7 3 2 0 1-1 1-2 2 0 2 2 3 2 2 1 0 1-1 2-1-1-3-3-3-1-1 3-3 5-3 8v1l-1 2c1 1-2 1-2 3 1-2 3-1 5-1 1-1 0-1-1-1-1-2 1-1 2-1 2 0 1-2 0-2 0-1 0-2-2-2 1-2 3-1 4-1l-2 3c2 0 3 0 3 2-1 1 1 2 2 1a1 1 0 0 1 0-1h1c-1 1 1 2 1 3l3-1c-1-2-3-1-3-2 1-2 3 2 3 0 0-1 2 0 1-1h3c-1 2-4 0-4 3l7-1c1 1 3 0 5-1h-1l1-1c1 2 3 1 4 2s2 0 3-1c0 2-2 3 0 4l6-1-1 2c1-1 2 0 2 1 0-1 2-1 1-2h-2l3-1 3-7c0-2 3-5 0-6 2-1 1-4 3-5l-1-2c-3 0-5-2-8-1l-28-5h-5m-106 1c-2 1 0 3 1 3l2-3h-3m103 0c-2 1 1 2-1 3-1-2-3 2-3-1v2l2 1c2 1 1-2 3-2-1-1 1-3-1-3Zm-98 1-1 4c0-1 4-4 1-4Zm153 2v1l16 2c-1-2-4-1-6-2l-10-1m-149 0c-2 0-3 4-2 5l2-2c0-1 3-4 0-3m-14 0c-3 1 1 1 1 2l5 1c-1-2-4-2-6-3Zm37 1-4 4 6-3h-2v-1Zm19 1-3 1c3 6 2 12 4 18 3 2 6-1 9 0-4-4-9-10-10-16v-3m52 1c0 2-4 1-4 3 1-1 2-1 1 1-2 0 1 1 2 2v-1l1-3c-2 0 2-1 0-2m-86 0-1 2c2 1 5 2 5-1l-4-1Zm28 1c-1 0-3 1-2 2 2 3 0 6 1 10 0 1-2 1-2 3v5c2-1 4-4 7-4-1-4-1-9-3-13l-1-3m-9 0c-3 0-5 2-7 4h12c0-3-2-4-5-4Zm-34 0c0 2 0 4-2 4l1 1-2 2v1l2-1 2-6-1-1m3 2c0 2-2 4-1 5l-4 11-7 16-3 6-4 5-4 8c0 2 2 3 3 1 6-8 12-16 16-25 3-4 5-9 5-14l1-2v-6c2 1 2-1 1-2-2 0-2-2-3-3m92 1-3 5-1 3c1 0 3 1 2-1h2l-2-2 4-1-1-1c-3 0 2-3-1-3m-65 4a2 2 0 0 1 0 1c-1-1-3 1-2 2 2 0 4-2 7-1l5 2c-1-4-7-3-10-4m25 1c-1 1 0 3 2 2 1 1 3 2 4 1-1 2-2 1-3 2 0 0 2 0 1 1l4-1c-2-1 2-2 0-1 1 2 3 0 3-1l-3-1c0 1-1 3-1 1h-1c1-1 0-3-1-1-2 1-4-2-5-2m-42 0 3 5 2-4-5-1Zm10 1-1 1c1-2 2 2 3 1 1-2-1-2-2-2Zm-69 0-3 2c2 1 1 1 0 1 0 2 3-2 3-3Zm195 1v3l-2-1c1 1 1 1 0 0-4-1-2 4-5 5l6 1c1-1-1-2-2-1 1-2-2-2-1-3s1 2 3 1c2 1 2-2 3-4 1-1-1-1-2-1m-53 1-2 1c0 2-3 1-4 0l-3 5 5-1-2-1c1-1 3-2 5-1 2 0 1-3 1-3m-63 0-2 1 8 4-1-2c-1-2-3-3-5-3m-11 1-2 1 5 1-3-2Zm41 1c0 2-3 0-3 2l3 1c1-2-2 0-1-1s4-2 1-2Zm-78 1c0 1 2 2 0 2-1 1 0-2-1-1v2c-1 0-3 0-1 1 1 1 3-2 4 0-1 2-3 2-4 2 1 2 4-1 5 0-3-1 2-4 1-2 1 1 2 0 3-1 1 1 3-1 1-1h-1c0 2-3 2-3 0l-3 1c1-1 1-3-1-3m44 0c-1 0-3 1-2 2l8 1c1 1 2 2 3 1-3-1-6-4-9-4Zm-79 1-2 3h2c1-1 2-4 0-3m70 0-2 2 4 5c1-1 0-3 2-4 1-2-2-3-4-3Zm259 1-2 3c2-1 4-2 6-1-1 1-1 3 1 2v1l2-1c-2-2-4-4-7-4m-283 1c-2 0-3 2-4 3h3v-2c1 1 1-1 1-1m19 0c-1 0 2 2 0 2s0 2 0 1c2-1 3 3 4 1-2-1-2-3-3-2l-1-2Zm-34 0c-1 1-3 1-2 3l-3 1v2c-1 0-3 0-2 2v1l1 3 2-2h1l-3-1c0-2 1-1 2-2 2 0 2 2 3 2 1 1 1-1 1-1-1-2 2-1 2-2v-1l-3 1h-3c-1-1 1-2 2-2h4l-3-2c-1 0 1-2 1 0 1 0 2-1 0 0v-2m45 1a1 1 0 0 0-1 1l10 4c2 1 3-1 2-2-3-2-7-3-11-3Zm124 0v3l1-2c1 2 3 1 3 2h-5c0 3 2 1 3 2h-1c1 2 4 0 5 1s3-2 3 0c-2 2 3 1 1 0v-1l-5-1c-1-2 5 0 3-2l-2-1-1 1-5-2m-54 0c0 1-2 1-1 2 1 0 0 1 0 0-2 2 3 2 2 0l-1-1v-1m-9 0-2 2c-1 1-3 3-3 5 2 1 7 1 8-2v-1c-1-1-1 1-2 2l-2-3h6v-1l-5-2Zm60 1-2 1c0-2-2-1-3 0v1h2l-1 1c1 1 3 0 4-1 0-1 2-3 0-2m-101 0-5 3 3 4c-1 1-2-1-3-1v-1c-1 0-1-2-2 0 1 1-1 2-1 3 1 1 0-1 1-1l1 2v1c1 1-2 1-3 1 0 1 1 3 2 1 2-1 2 3 3 2l1-2c0 3 2 0 1-1 2 0 1 3-1 3-1 1 0 1 1 1l-2 4s1-3-1-2v1l4 6 3-10h-1c2 0 2-3 3-4s-1-3 1-2c2-3 5-4 8-6l-4-1c-1 1-4 0-3 1 2 1-2 2-1 1l-1-1a6 6 0 0 0-4-2m59 0-3 2c1 1 6 0 3-2Zm-156 1c-2 1-4 1-4 3h3l1-3Zm328 0c-2 0-2 2-4 1-3 2 3-1 2 2l1-1c1 1 2-1 3-1l-2-1m-142 2-1 2c1 0 2-2 3-1v-3l-2 2m-147-1v1h-3c1 2 5 3 5 1l1 2c1 0 2-2 0-2l-3-2m37 0v1l8 4h3c-4-1-7-5-11-5Zm260 2c1 1 4 0 3 1-1 3-4-1-6 1 2 1-1 1-1 2-1 2 2 2 2 1l3-1c-1-1 0-1 0 0 1-1 3 1 2 2l-2 1c1 1-1 2 1 2-1 2-4 3-6 3 0 2 2-1 2 1h1c1 2 1-1 2 0 2-2 4-6 8-7l-7-8c0-1-3 1-2 2m-191 1a1 1 0 0 1-2-1l-1 2 21 3h7c3 1 7 2 11 1 2 2 4-1 5-2 0-1 2-2 1-3h-2l-3-1s0 3-1 1c-2 1-5 0-6-1-1 0-3 1-3-1-1 2-4 0-6 2 2 0 0 2 0 0-3-1-1 3-3 2l1-1h-4v-1h-6c-2-2-5 0-7 1l1-1c-2 0-3-1-2-2-2 0-1 2-1 2m50-1c-1 1 0 3-2 2 1 0-1-3-2-1l-5 7c2 1-3 0 0 1 3-1 7 1 8-3h-2c2 0 3-2 4-4-1 1-1-2-1-1v-1m129 0c-2 1-5 0-6 2h1l5-1v-1Zm-250 1c-1 1-1 3 1 4l9 4c1 0 2-2 1-3l-11-5m-76 1c-2 1-4 1-4 4h4v-4m367 0-13 10c-3 1-6-2-6-4l-12 12-9 10c9 0 18-2 26-1l17 2c5-1 11 1 16-2 15-1 30 4 45 2l-36-20-21-7-7-2m-162 1a3 3 0 0 0-2 1c2 1-2 0-3 1-2 1 1-3 0-1 0 2-3 3-3 4 5 1 9 1 13 3 5-1 10 0 14 2 6 0 11 3 17 3-1-2 0 0 1 0l4-1c2 1 4 0 6-1-1-1-3-2-5 0 0-2-2-1-4-1a1 1 0 0 1 1-1h1l1-1h2l-1-1-10 2c-2-1-5-2-5 0-2-1-4 1-5-1-2 1-3 0-4-1l-2 1c-2-2-5 0-7-2 1-1-1 1-1-1h-7c0-1 3 1 3-1h-4l-2-1 2-2c1 1 3-1 3 1 2-1 0-1-1-1s-1-2-2-1m-161 0-2 1h-3c1 2 2 4 3 1h1c3 1 1-2 1-2Zm94 2-2 1c2 0 4 3 5 1l-3-2Zm102 3c-1-2-4 0-6-2l1 2c1-1 1 2 3 1h5c2 0-2-1 0-2l-2-2c-2 0 1 2-1 3m-93-3 12 6v-4l-12-2Zm-72 1c0 1-2 1-1 2 3 3 6 6 10 6l1-3-10-5Zm239 0c-1 0-4 1-3 2l2-1c1 2 4-2 1-1Zm-272 1-1 2c-2 0-1 2-2 3l-4 1c-1 3 3 3 5 2 0-3 3-5 3-7 0-1 1-2-1-1m290 0-1 2c-1 0-3 2-4 0l-1 3c2-1 3 1 5-1 1 1 3-1 2-2 1 0 3-1 1-1-1 1-1-1-2-1m-190 0-1 2h3c-1 1 2 2 2 1 1-1 2 1 3-1v3l1 1 6-1c-4-2-7-4-11-4-2 2-1-2-3-1m20 0-1 4 1 1 4-5h-4m64 0c-2 2 1 3 2 4l4-1c-1-1-3-3-4-1l-2-2Zm-57 1-2 1c-1 3 2 0 3 1 0 2-3 2-4 3l2 1 1-2c2 1 6 1 6 4l6 3c-1-2-4-2-5-5h-2c-1-2 0-3-2-4-1 0-1-3-3-2m-171 0c-2 1-3 3-3 5l3-1c2 0 2-4 0-4m109 0-3 1-2 9c1 0 1-3 3-2 1-1 0-2-1-2 1-1 2-2 1-3-2-2 3-2 2-3m149 0c-1 1-1 2-1 0l-4 3v2h1c1 2 3-2 2-1 0-1 2 0 1-2h3c-2 0-2-1-3-2m67 1c1 1-1 0-1 1 0 2-2 0-3 0 0 2 2 1 2 2l2-1c1 0 2-2 0-2Zm-250 0c-2 2 1 5 2 6l7 3c1 1 3-1 2-1l-8-5-3-3Zm44 0-3 3 1 1c-1 1 1 0 1 1 3 1 2-2 1-5Zm-27 1-1 1c2 1 1 4 2 5h2l-3-6Zm111 1c-2 1 0 3 1 2l-1-1c4 2 9 1 13 1l-13-2Zm-131 2c-2 2 2 5 3 6 2 2 6 5 8 2-2-2-7-3-9-6 0 0 0-2-2-2m88 0c-2 2-4 1-5 2h5c-1-2 1 0 2 0-1 1 0 2 2 2-1-1-1-1 1-2 0 1 1 2 1 0l-6-2Zm170 1h-3l3 1c1 2 3 1 4-1h-4m-299 0-8 2c-1 1-4-1-4 1l12-2h2c-1 0-1-2-2-1m58 0c-2 4 2 6 4 9 2 1 1-1 1-2-3-1-4-5-5-7Zm237 1-1-1-8 2c0 1 2 0 2 2l-4-1 1 2c0-2 1-1 1 0 2 0 2-2 4-1 1 0 4-3 5 0l-1 1c2-2 5 0 7-1l-1 2h3l-1 1c1 1 2 0 2-1l3-3c0-2-2-1-3-2s-3 1-1 1c0 1 1 2-1 2l-5-2c-1 3-1-1-1-2 0 0-1-1-1 1m-12-1-3 2 2 2v-1l1-1v-2m-313 0c-1 0-3 2-2 4 1 0 3-3 2-4Zm168 2v2c-2-1-1 2-3 1-1-2-2 1-3 0-2-1 1 2 1 2 1-2 3 0 1 0 3 1 3-2 5-1-2 2 2 2 3 2 2 2 3-1 5 0 1 2 4 3 3 5 1-1 4 0 3-2 2 0 0 2 2 2-1 1-4 1-3 4 1-2 3-1 3 1 2-1 2 0 2 1l-2 1c0 2 4 0 3 2-2 1 0 1 1 1-1-1 1-1 1-1-1 2 2 3 3 1l1 2c-1 0-2 0-1 1 1 0 4 0 3 2 1 0 3 0 2-1l-2-5c-1-3-5-2-7-5-1 2-3 0-1-1l-3-7-9-4c-1-1 0 1-1 1v-1l-4-2a2 2 0 0 1-2 1c2 1-2 2-1 1l2-2-2-1m-135 1-9 1 13 4 3-4-7-1m36 0c-1 3 0 5 3 7 2 0 5 4 7 2 1-2-1-1-2-2l-8-7m120 0c-2 0-3 2-3 4 1-1 3-2 2-4l1 1c2 0 1-2 0-1Zm2 0c0 2-2 3-3 5 2-1 3-3 5-2s-2 1-1 3l3 1-2 2c1 1 3 0 2 2 3-2 6-4 10-3l12 3c-1-3-5-4-6-7-2-1-4-5-7-3-2-2-4 0-7-1h-6Zm-97 0v2l4 5-4-7Zm25 0c-2 1 1 2 2 3l-2 1c1 1-1 0-2 1h4l1 2 4 1-1-2h2v-4c-1 0 0 3-1 2-1 2-3-1-1-1 1 0-1-2-2-1l-4-2m35 1-2 1c2-1 2 1 1 1 1 0 3-2 4 0 0-2 2 1 2-1-1-2-4 0-5-1m82 0c-1 2-3 2-3 4l3-1v-3Zm-99 0v2l-2 1c-1 1 1 1 2 2-1-2 2-2 4-2 2-1-2-3-2-1l-2-2m-87 1c-1 0-1 0 0 0 1 1 4 3 5 1l-5-1m-49 0c-1 0-2 1-2 3 1 0 6-3 2-3Zm231 0c-3 2-7 3-9 6h2l7-6m88 0v1c0 2-3 1-3 3-2 0 0 3-3 2-2 0 0 2 0 1h2l1-1c-2-1 0-2 1-2h5l-1-1c1-1-1-2-2-3m-233 0c-1 2-4 3-2 5 2 4 7 5 7 10 2 2 2 7 5 6 0-1 0-3-2-3-2-3 0-8-2-11l-6-7m30 0c-1 1 0 2-1 1l-1 1c1 0 2 2 2 0l2-1-2-1Zm193 1c-1 0-3 2-4 1 0 2 3 2 4 2s3 0 1 1h2l2-2h-3c-2 0 1-1 0-1l-2-1Zm-262 1-6 8c1 3 2 6 1 9 2 4 0 8-1 12l2-1c3-1 5-5 5-7l2-1c0-2 2-2 2-3 1 0 2-2 3 0s-2 1-2 2c3 3 6 8 11 7 1 1 2-1 2-2-5 0-11-4-11-9-1-3 4-4 3-7-5-2-7-7-11-8m279 0-2 2c1 0 3 1 2 2 0 2-2 2-4 3 1 1 2-1 2 1 0-1-4-1-4 1 1 0 4 1 4-1a2 2 0 0 0 1-2c1 1 3-1 1-1 3 0 4-3 5-4-1-3-3 2-4 0 1-1 0-1-1-1Zm-260 0c-2 2 1 5 3 5 2 2 4 4 6 4l1-1-4-3c-3 0-4-3-6-5m-13 0c0 2 2 3 3 3 1-2-2-2-3-3Zm98 1-2 1c1 2-1 1-1 2 2 2 4-2 3-3Zm84 0a3 3 0 0 0-2 3c1 0 3-2 2-3Zm-171 3c-2 0-2 2-2 3l6 6c2 1 6 1 5-2-3-2-7-4-9-7m109 0h-3v2l5-1-2-1Zm-173 0c-1 1-3 1-3 3 4 0 9 2 13 5 7 4 15 10 19 17 0-6-4-10-7-14-7-5-14-10-22-11Zm140 0c-2 0 1 4 1 2 1 1 2 2 3 1 1 1 2 3 2 1 1 1 3 1 3-1l8 4c-2 2 4 0 3 3 3 0 4 0 6 2l1 1h2c2 1 4 1 5 3 3 0 6 1 7 3v1c0 2 1-2 2-1v-2h-4c0-3-3-2-4-4-2 0-5-3-7-2l-4-2c0-1 1-1-1-1l-1-1-12-4c-1-1 1-1 1-1l-5-2c1 2-1 1-2 2h-3l-1-2m-59 1-1 1c-1 2 2 3 2 5 1 3-2 5-3 6l12 2-2-8-8-6m48 0v2c-2 0 1 1 1 2s-2-1-2 1l-1-1c0 2-3 2-4 1l-3 1 5 1c-1 1 0 1 0 0 1-1 1 2 2 0l2 2h3c1 0 3 0 2-1v-3c1 1 1-1 1-2h-3c-2 0-2-3-3-3m62 0c-2 1-2 4 0 4 0-1 2-3 0-4Zm39 1v1h4c1 2 2 0 3 1h3c-3-2-6-2-10-2Zm-113 0c-1 2 0 3 2 2 1-1-2-1-2-2Zm104 1c-1 0-4 1-2 2l3 1-1-3Zm93 0-2 2h5l-3-2m-190 0-2 2 3 1-1-3Zm78 0c-2 1-3 3-5 3-2 1-2 4 0 5 1-2 5-6 6-2 3 2-2 3-3 6-2 1 0 3 1 5 3-2 4-5 8-5 4-2 8 0 12 0h2c0-3-2-5-4-8-6-1-11-4-17-4Zm-141 1-2 2c0 2 2 3 3 5 3 1 6 5 10 2-5-1-8-5-11-9Zm244 1c-2 0-3 2-5 1 2 2 4-1 6 0l-1-1m-305 0v5a30 30 0 0 0 19 14h7c-2-4-6-7-9-10-5-3-11-7-17-9m78 0c0 2-2 2-3 3v3c-1 1-2 1-1 2h3c-1-1 0-3 1-2 3-1 2-5 0-6m71 1c0 2-2 0-3 1-2 0 2 1 0 2h2c1-1 4 0 3-2a3 3 0 0 1-2-1m293 0c-1 0-3 1-2 2l9 3 6 3c0-4-5-5-8-7l-5-1Zm-410 1-2 2 3 3c2-2-1-3-1-5Zm287 0c0 2 0 4-2 3 0 2-3 1-3 3l-3-3c-1 2 3 4 4 5 0-1 1 0 0 0l-4 3h1l-1 2c1 1 3-1 1-1 0-1 2 1 2-1 0-1 3-1 2-2a2 2 0 0 0 0-2c1 0 2 0 1-1l3-1c-2 0 0-1-1-2 3 1 3-3 0-3m-261 2c-3 5 5 10 10 8v-1c-4-1-8-4-10-7Zm245 0c-2-1-2 2-1 2 2-2 4 0 6-1l-5-1Zm-148 1v2h-2l3 1 1-2-2-1m-127 1c-3 2 0 4 1 6l2-3-3-3Zm-31 0 2 4c3 4 7 9 12 11l-1-1c-6-3-10-9-13-14m152 1c-1 1-1 2-2 1-2 0-2 3 0 2 1 0 0-2 1-1 1-1 2-2 2 0l-1-2m-78 4c-2 0-1 2-2 3 2 2 4 0 7 1l4-4-4 1h2l-2 2-2-1c1-2-2-2-3-2m233 0-1 1c2 1-1 1-1 2 1 0 3 1 3-1v1l3-1-4-2Zm-135 0s0 1 0 0c0 1-1 2-2 1 1 2 3 3 4 1 2-1-1-2-2-2Zm-7 1-2 1h1c2 0 3 1 1 1l3 1c0-2-2-1-2-2 2 0 0-2-1-1m46 0c-2 2-4 2-5 5 1-2 5-3 5-5Zm7 0-5 4h1l5-4h-1m-32 2c-1 1 2 2 2 3l1-1 3 2c0 1 2-1 2 1 1 1 1-1 1-1l1 2 6 3c0 2 2 1 0 0l3 1 8 5-2 1 4 2 1 2v1l5 1 1 1v2c2-1 4 0 4 2h1v2c1-2 2 1 3 1l1-1h2c2-1-1-2-1-3-2 0-3-3-5-2 0-1-1-2 0 0l-5-3c0-1 4 2 2 0l-5-4a2 2 0 0 1-2 0c-1 1-1 0-2-1 0 0-1 0 0 0s3 2 4 1c-2-3-6-4-9-6 1 2-2 0-1-1-7-3-14-6-20-11-2-1-2 1-3 1m-11 0v2c2-1 1 2 3 1l6 3c0 1 2 1 1 2l4 1c1-3 2 1 4 1l-1-2c-2 2-1-2-3-2 0 1-1 3-2 0-1 2 0 0-1 0 1-2-2-3-1-1l-4-2 2 1c0-2-4-3-2-1h-2c-2 0-1-2 0-2l-3-1h-1m-173 0c1 4 4 7 6 10 2 0 1-3 3-2 0 2 0 6 3 6l1-4c-5-2-9-6-13-10m199 0c-2 1 1 2 0 2-3 1 2 3 2 2l-2-4Zm-148 1c-1 1 1 3 1 4 2 3 5 6 9 6v-2c-3-1-7-3-9-6l-1-2m410 1c-4 1-8 3-10 7l-1 8c-4 5-13-2-16 3 6 4 7 12 11 17l5 11c1 0 3-1 2-3 1-3 2 0 2 1l1-4c2 0 0-2 1-2 2 1 1-1 2-1 2 0 0 6 3 5 1-3-2-6-2-9h2l2 7c0 2 3 2 2 0 1-3-2-6-3-9a1 1 0 0 1 1-1c2 3 4 7 4 10-1 2 1 2 2 1 0-4-2-8-3-11 0-1 1-3 2-2 0 4 4 9 3 13l2 1c2-4 0-8-2-12-1-1-1-2 1-2 3 4 4 9 3 14l2-1-2-8c0-1 1-2 2-1l1 8c3 0 0 3 3 2-1-2-3-5-3-8l2-1c1 3 1 6 3 7 0 2 0 3 2 3-2-1-1-4-2-6l1-2c2 2 0 5 3 5l-1 3h3c-1-1-2-3-1-4 1 0 2 4 3 1 2-1 3 1 3 2 2 0 3-2 5-1l8 4 4 2 4 2c5 4 11 5 17 7 4 2 8 2 12 5l9 3c5 2 9 5 14 6l10 4v-3c-6-4-14-6-21-8l-23-12c-3-2-7-2-9-6l-8-4-16-8-13-11-11-9c-4-4-7-10-13-12l-3-1m-297 1 6 3c2-1-3-1-1-2-2-1-4-2-5-1m10 0c-1 1-3 1-1 2l-1 1 2-1c1 1 3-2 0-2m72 1h-1c-1 2 4 2 3 1l-2-1m66 0-3 1 1 1-1 2c1-1 4-3 3-4m-262 0c-2 2 0 4 0 6l6 6c2 0 3-1 3-3-4-1-7-5-9-9m157 0c-2 0-1 2 0 3l11 7c3 1 5 5 9 6 1 0 4 1 5-1l-4-13c-2-1-4 2-5-1l-16-1m-32 1v2c1 1 1-2 2-1 2 0 1 3 0 1-2 1 0 1 1 2 0-1 3-1 2 1h-1c2-2 3 3 5 1v1c-1 1 0 1 1 2-1 1 2 1 2 2 1-1-1-2-1-3l2 1c1 2 2-2 1-2 0 2-1 0-1 0a2 2 0 0 1 2 1l3-1h-2c-1 0 1-2-1-2-1 0-1-2-3-1 0 1 2 0 3 2-1 0-3-1-3 1-1 1-2-3-3-1-1-2 1-1 2-1l-2-1c1-1-1-1-2-1l-3-2-4-1m57 0v3c-1 1 0 2 1 3-1 1 1 2 1 3l1 7 1-2c-1-4 0-8-3-10l-1-4m-219 2c3 2 8 2 11 3l-2-1-9-2m237 0c-1 0 0 2-2 2v4l3-1 2 1c0-1 3-1 1-1 1-2-1 0-2-1l-2-2v-2m-217 2c-1 1-1 3-3 3v8c1 1 3 2 4 1l-1-1c-1-3-1-6 1-9 1-1-1-2-1-2Zm10 0c-1 3 0 9 4 10-1 1 1 0 1 1 0 2 3 1 2 0-3-3-6-6-6-10 1-1 0-1-1-1m-4 1c-1 3-1 8 2 10 1 1 3 2 4 1l-4-6c-1-2 1-5-2-5Zm220 0c-2 1 2 6 3 3l-3-1v-2m-244 0c0 3 0 5 2 7h1v-6l-3-1m21 1c-3 3-1 10 3 10-2-2-3-5-2-9l-1-1Zm-16 1c0 2 1 7 4 8 0-2-2-5-1-8h-3Zm176 0c0 2-2 0-3 1 2 1-1-1 0 0 0 2 2 3 2 2 0 0-2 0-1-1 1 0 4 2 3 0 3 0 1-3-1-2m-171 0v3l2 6c0-3-1-6 1-8l-3-1m180 3v1c2-1 4 1 5 1a5 5 0 0 0-5-2Zm59 1c0 1-2 0-1 1 1 2-3 1-3 2 3 1 7 3 11 2l-3-3c-1 1-4-1-2-2h-2Zm-70 0-1 1c0 3-5 0-6 2h6a5 5 0 0 1 6 1l-1-1-2-2c-1 2-2-1-2-1m13 2c-2 1-5-1-6 2-3 0 1 3 1 1-2-2 5-2 2 0-1-3 1 2-1 0-1 2 2 2 2 2h-6c-1 1 1 1 1 1 2 1 5 0 6 2 1 1 1-1 1-2l3 2c0 1-3 0-1 1 1 0-3 1-1 2 1-1 3 2 4 0 1-1 3 2 1 1l-1 1 4 1v-1h2c1-1-2-3-1-1h-3c1-2-2-3-3-2a1 1 0 0 1-2-1c1 0 3 1 2-1 1 2 2 1 3 0a5 5 0 0 0 5 3c1-1-2 0-1-1 1-2 1 1 3 0-1-4-5 1-5-2-1-2-4 0-3-2v-2c-2 0 0 0 0-1-1-1-2 1-1 2l-2 1-1-1c-1 2 0-1-1-1v2h-1l-1-2a2 2 0 0 1-1 1c-1-1 1-1 1-2 2 0 1-2 1-3m65 4v1h-3c0 2-2 0-2 1-1 0-2-2-2 0l5 1h2s2 0 1-1l2-1-3-1m-34 2s-2 3 0 3c1 0 2-3 0-3Zm186 2-8 1 6-1h2m-148 0c-2 0-4 3-6 2-1-1-2 1 0 0h4c0-2 4 0 2-2m-43 2h1c1 1 1 3-1 3v2c0-2 2-1 3-1-1-2 3 0 2 1h-1v3l1-1c-1-2 2-2 2-1-2-1 0 2 1 1 0 2-1 1-2 1 1 2 3 5 6 4 0-1-2 0-3-2h2l-2-2c-1-2 2 1 2 0-1 0-2-3-3-2l-1-1c1 2-3-1-1 0 0-2-2-3-4-3 1-1-1-2-2-2m-10 2-2 1h2c-1 3 1 1 2 1l-2-2m205 2c-2 1 1 2 2 3h-2c-1 1 1 1 1 2l7 1c2 0 0-2 2-3-4 0-4-3-8-3 0 1 0 2-1 1 1 0 0-2-1-1Zm-120 0 3 2c1 1 0-1 0 0 0-2-1-2-3-2m-81 0c0 2-1 0-1 1l1 3c1-2 3 0 4 0l2-2h-5c0-1 2-2-1-2m75 1c1 2 4 3 6 2 1-2-2-1-2-1-1-2-3 0-4-2m-7 1-3 1-1 1h2v-1c1 0 3 3 4 1-3-1 3 1 1-1l-3-1m94 0-3 1c1 2-2 1-2 2 2 2 2-1 3 0l2-3m4 0c-1 2-3 2-4 2-1 1 2 0 2 1 1 2-2 0-2 1l3 1 2-3-1-1v-1m-77 1-1 1h2c1-1 3 1 4-1h-5m106 0v1c-1 2-5-2-5 1h3a4 4 0 0 0 5 1c0-2-1-1-2-1-2 0-1-2-1-2Zm-189 1c-2 0 1 0 1 1 1 1 3 2 3 0l-4-1m169 0v1c-1-1-3 0-4 1h4c1 0 2-3 0-2m11 1-3 3c1 1 3 0 2-1 0-2 2 1 3-1l3 1-5-2m28 0c-3 1 1 2 2 4-1 0-1 1 1 1v1c0 2-3 0-4 1 0-1-2 2-4 1l1 2c-1-1-3 0-2 1l12-3c-1-3-3-6-6-8Zm-195 2-2 1 3 2c1 0 3 0 2-1l-2-1a2 2 0 0 1-1-1Zm73 0c-1 1 2 2 3 2h1l-4-2Zm66 0c0 1-2 3 0 3-1 0 0-2 1-1l3 1-1-3c-1 2-3 1-3 0Zm-153 0v1l-1 1c-1-1 0 2 1 1 0-2 3 1 3-1-1 0-1-2-3-2m171 1c-2 1-5 0-3 2-2 2-3-1-5 0l6 1c0-2 2-1 3-1l-1-2Zm-27 1h-3c0 2 2 1 2 2h-5l-5 2 2 1-2 1h3l2-1c0-2 1 1 2 0 0-2 2-2 3-1h1l1-1c2-1 3 2 4 1 0-2 3 0 2-2h-7v-2m-139 1h-2c0 2 1 2 3 1l2 2 1-1c-2-1-2-3-4-2Zm11 1c3-1 1 2 3 2l-1 1-2-1 3 2c0-2 3 0 1-1-1-1 1 0 1-1v-1s-3-3-3-1c-1-2-3-1-2 0m75-1v2c0 1-2 2-1 0l-2 2c2-2 2 2 4 0 1 1 3-1 4-1-2-2-3 0-5 0 2-1 1-3 0-3m26 1-2 1h4c1-2-1-1-2-1Zm59 1v2h5l-3-2c0 2-1 1-2 0m-155 1v2h2l4 3c1 1 0-2-1-1l-3-2c1-2-1-2-2-2m76 1-2 1c3-1 6 3 7 0-1 0-3-3-3 0l-2-1m-93 1 1 1c0 2 3 1 4 0l3 1c2-1 3 4 4 2l-3-4-1 2-3-2h-5m16 1 2 2h1l3 3-3-4-1-1-1-1c-1 0-3 0-1 1m111-1-1 2c0 1 3 2 4 1-1 0-4-1-2-2l-1-1Zm-267 1c-1 1 0 3 1 4l3-1-2-2-2-1m274 1c-2 0-3-1-4 1l3 1c-2-1 2-2 1-2Zm-19 0c0 1-2-1-1 1s-2-1-2 1h-3c1-2-2-2-2 0l3 1 5-1c1 1 3 0 4-1h-2c-1 0-1-2-2-1m-16 1c-1 1-2 2-3 1-1-2-2 1-2 0-1-1-2 0-1 1h6v-2m-74 3v1c-1 2 1 2 2 4h1c2-1-2-1 0-1l-2-3c2 2 0-2-1-1Zm94 0-3 1c0 2 2 1 3 1-2 0 2-2 0-2m-8 1v1c2-1 4 2 5 0l-5-1Zm-101 1-4 1h6c-1 1-5 2-2 3 0-2 2-2 2-3 1-1-2 0-2-1m161 1-2 1 3 1 4-1-5-1m-142 3c-1 0-1 2 1 2h3c-1-1-3-4-3-1-2 0 0-1-1-1Zm-43 0c1 1 3 3 1 4l-11 1c2 2-1 4-2 7 3 1 5-1 8-1l7-1-2-2 2-3c-1 1-2 3-4 2 0-2 3-2 4-3 1 1 4 2 4 4-1 1-2 2 0 2 1-1 2-5-1-5l-6-5Zm176 2-2 1h-2 5c2 0 0-1-1-1Zm-222 1 1 2c7 4 13 9 20 12l-4-4c-3-4-9-3-12-6l-5-4m215 1c2 2-2 1-3 2 0 2-3 0-4 2-1-2-2 2 0 1l9-4-2-1m-130 0c-2 1 0 3-2 4 1 1 2 0 1-2 1 2 5 3 4 1l2-1c-1-2-3 0-5-2m9 1a3 3 0 0 1-3 0c1 1 0 2 2 2-1 1 2 0 1 2 0 2 1-2 2 0-1 1 2 0 1 2l4 2h1c0-2-2-1-3-3 1-1-1-2-2-2l-3-3Zm-21 0c0 3 3 2 5 2h2l-7-2m18 3-1 4h2c0 2-2 2-3 2a1 1 0 0 0 2 1c0 2 2-1 3-1 2 0 0 0 0-1-1 2 0-3-2-2l-1-2m-6 1c-1 1-2 0-1 2l2-1c1 2 2 0 3 0 0-2-3 1-4-1m17 6 2 3c0 1 1 1 1-1l-1-1c1 0 3 1 2 2l1-2c1-1-2 0-3-1h-2m1 4-2 2h-2l2 2 3-3c1-1 0-1-1-1Zm11 9c0 2 1 2 2 3l2-1a1 1 0 0 0 1 2l3-2c0-1 0-3-1-2v-3l-2-3c-1-1-2 2-3 0 0-2-2 1-2-1-1-1 2-1 1-2-4 1-4 7-1 9ZM148 163c2 0-1 3 1 2 3 0 0 2-1 1-2 0-1-2 0-3Zm215-1 4 1-5 1 1-2Zm7 0c9-1 19 3 29 1h32c11-1 22 1 34 1l4 1h-27l-19-1-34 2c-6-2-12-2-18-2-1-1-3-2-1-2Zm-91-3c6 2 12 0 18 2 5 2 10 2 15 0l5 1h9c10 2 19 0 29 1v1h-11c-11 2-21-1-32-1-6 3-13 0-19-1h-13c-1-1-3-2-1-3Zm-32-8h1c1 0 2 2 0 1h-3c-1-2 1 0 2-1Zm5-8c1-1 1 1 1 2 1 1 0 1-1 1-2 0 1-2 0-3Zm-102-2c1 0 3 1 2 3s-5 3-7 1c-1-2 1-3 2-2h3c-2 0-2-2 0-2Zm23-4c3 0-1 1 0 3 1 1 2-2 4-1-1 2-4 3-6 2-1-2 1-4 2-4Zm-7-3c2 0 1 3-1 4-1 0-4 1-5-1-1-1 1-2 2-1h3l1-2Zm100 0c1 1 0 3 2 3-2 0-3 3-4 2l-1-1v3c1 0 3 0 2 1l1 2c2 0 3-1 3-3 0-1-1-3 1-3 1 1 2 3 1 5s-5 3-7 3l-3 3c-3 2-7 2-11 1 1-3 4 0 6-1 4 1 5-3 7-6-1-3-2 3-3 1-2 0-4 2-4 0-1 0-1 2-2 1v-2h2c0-2 2 1 3 0l-3-2a3 3 0 0 0 3 0l2 2 2-4-2-2c1-1 0-2 2-3a2 2 0 0 0 3 0Zm-79-3c3 0 5 3 7 3s4-2 5 0c1 1 0 3 2 5 2 1 1 6-1 5-1-1 1-3-1-4-1-2 1-4-2-5h-11c1-2-1 0-2 0-4 2 0 9-5 9-2 1-4 2-5 5 0 1 1 3-1 5l-5 3c0 1 0 2 1 1 4 0 7 1 10 3l1 5c0 1-1 2-2 1-2-1 0-3-1-4l-5-2c0 3-2 6-4 6-4-2-7 1-9 3v-2c2-2 6-4 9-3 2 0 2-2 2-4l-12 1v2a2 2 0 0 1 1 2c-1 2-5 2-4-1l2-3h-13l-14 1-7-1-29 1-7 2-1-1c7-2 15-3 22-3h17c8-1 17 0 25-2-3-1 2-5 3-2 1 2-2-1-2 1 1 3 6 2 7 1l8-1 6-6c0-4 3-9 8-10l1-7c2-1 5-2 6-4Zm-10 0 2 2c-1 1-4 2-5 0l3-2Zm78-2c2 1 2 3 2 4l-4 8c-1 0-2 0-1-1 1-3 3-7 3-11Zm-82-4v3l-4-1c-1-2 3 1 4-2Zm91 0h2c0 2 1 1 1 0 1-1 1 1 1 1 2 0 0 4 2 3 0 2-2 2-4 2-1 1-2 0-2-1 1 1 3 0 3-2-2 3-6-2-3-3Zm-24-3c3-1 7 0 10 1l2 3c0 1 3 1 3 3l-5-2-1-3-13-1c-1 1-3 1-3 3l5 4c3 2 3 6 2 9-2 2 0 5 0 7 3 0 4 3 3 5-2 2-3 6-6 6-1-2 1-2 2-3 1-2 3-4 2-6l-4-2c1 2 0 3-1 5 1-2 2 0 2 1l-6-1c-1-1-1 1-1 2 1 1 4 0 5 2-3-1-2 2-4 2v-2c-1-3-4 3-6 1l-1 3c0 1 4 2 3 0 0-1 3-2 4-1 0 2-4 1-4 2l27-1h20v1c-6 2-13 0-19 1l-22 1c1 4-4 7-7 8-4 0-7 3-10 2-1 0-1-2-3-1l-5 5c-3 2-6 0-9 1-3 0 1-2 1-3 1-2-3-1-1-2 1-1-1-2-1-3-2-3-6-4-8-6-2-1 0-3 1-2l7 5c2-1 4 1 6-1-2-1-5-1-4-3h2l4-5c2-2 6 0 7-3 1-2 5-2 5-5 0-2-3-1-3-3-1-1-3-2-2-4 1-4 4-8 3-12 3-1 3 3 6 3 0 2 3 4 3 2l2 3c3 3 4 8 3 13l2-3c-1-1 2-1 1-2 0-2 2-2 2-3v-2c1-2 3-4 1-5l1-2c-2 1-1-1-1-1 1-1-2-3-2-1 0 0 2 3 0 2l-3 1v-4a4 4 0 0 1-4 0v2l-2 1v-2c-1 0-3-1-2-2s2 2 3 1l1-2c0-2 3-3 3-5 3-2 6-2 9-2m-8 6s-2 0-2 2l4 1c1 0 0-3-2-3Zm-14 10c-1 2-3 5-1 7 2 1 5 2 4 4 0 3-3 4-5 6l-4 2c-3 0-6 3-6 5h1s0 2 1 1h3v-1a4 4 0 0 0 3-2l1 2h-2c-1 0 0 2 1 1 2-1 5 0 6-2a2 2 0 0 0 2 1c-1-1-1-4 1-5 1 0 0-3 2-3 1 1 4 0 4-2-1-1 2-4 0-3-3 1-3-4-1-3s-1 1 0 2c1 0 2-1 1-2-2 0 1-3-1-2h-4c-3-1-3-5-6-6m-6 25-1 2c-1-2-1 1-1 2a1 1 0 0 1 3 1h-5l-3-1c1 1-3 1-1 2v3c1 1-1 2-1 3 3 2 8-1 8-5l-2-2 2 1h2c1 0 4-1 5 1 1 1 3 0 4-1 4-1 8-1 10-5 0-3-4 2-5 0-2-1-5-1-5 1 1-2-4 0-4 1l-3-2a3 3 0 0 1-3-1Zm-30-42c1 0 2 0 1 1s2 0 2 2c-1 1-4 1-5-1-1-1 1-2 2-2Zm73-1c1-1 1 2 1 1h2c0 1-3 3-3 1v-2Zm30-2c1 0 2 2 3 1h4l-2 1c0 2-3 1-1 3 2 1 0 3-1 2-1 2-2 1-3 0s3-1 3-3c-2 1-6-1-3-2v-2Zm-30-5c1 0 2 1 2 3l2-1a1 1 0 0 0 2 2v-3c1 1 1 3 3 3l-2 2c1 0 1 3 2 2h-1c0 2 0 3-2 2 1-1 0-2-1-1-2 0 0-3-2-3v-1c0-1-1-2-1 0v1c-2 1-3-2-2-3 1-3-2 2-2 0 1-1 0-3 2-3Zm-72-5 2 2c1 2-3 3-4 2-2-1 0-4 2-4Zm93-8c2 1 0 3-1 4-1-1 1-3 1-4Zm-90 0 1 2v2l-4-1c0-2 1-2 3-3Zm68 0c3 0 6 1 8 4h7c1 2-2 3-1 4 2 1 5-1 6 2l4 5c1 3-1 4-1 6s3 3 2 5l-3 10c-1 2-5 1-6-1 2-2 4 2 5-1 2-2 2-5 3-8 0-2-3-3-3-5 1-2 2-3 1-5-2-1-4-3-4-5-2-3-6 1-7-2-1-1 2-2 1-4l-4 1c-2 0-3-4-5-4-1 0-6-1-3-2Zm46-6c2 0 3 4 5 3l-2 2v-1 3c-1-1-4 1-3-1 1 0 2-1 1-2 2 0 1 0 0 0 0-1-2-2-1-4Zm-7 0c1 0 0 2 2 2l-1 4-3-1-2 1 1-4 3-2Zm-120-1c2-1 1 1 1 2 1 1 2-2 4 0-1 2-4 3-6 1-1-1 0-3 1-3Zm56-10 2 2 3-1c3 1-1 2 0 3 0 2 1 0 1 0 1 0 1 3 2 2l1-1c0 2 3 1 4 3 2-1-3 0-1 2h-1c-1 1-2-1-4-1 0-2-3 0-4-1-2-1-1-3-2-4-2 2 0-3-1-4Zm-48-7c2 0 4 0 4 2s-3 2-4 2c-3 0-2-4 0-4Zm84-5 3 1c1-1 3 0 3 1 1-2 3 4 2 2-2 1-5-1-7-1h-2c-1-1-3-2-1-2 1-1 2 1 2-1ZM36 70l7 1h7c1 1 0 2-1 2-5 2-9-3-14-1h-4c-4 1-7 2-11 1 0-2 3-1 4-2l12-1Zm183-3c2 0 2 2 3 2 2 1 2-2 4-1h2c-1 2 2 3 0 4a1 1 0 0 0-2 0c-2-1-6-2-9-1 0-1 0-3 1-2l1-2Zm-48 0 9 1h4c-3 2-6 1-8 1h-5c-9 2-19-1-29 1l-15 1c-2 0-5 0-7 2H96l-9-1H58c-1 1-4 0-2-1 9-2 19-1 29-1 5 2 11 1 16 1 6 1 12 2 18 0 3-2 6-2 9-2 5-1 10 1 15-1 10-2 20 3 28-1Zm88-9c2 0 3 5 1 4 0-2-3-3-1-4Zm-49-6 1 3c-1 2-4 2-4 5-1 1-4 2-4 5 1 2 7 2 5 5-1 3-4 4-5 6h7a11 11 0 0 1 12 0c3 1 1 5 3 7 2 0 0 3 2 4l1 3 3 3c-1 4 3 6 6 8 1 2-1 1-2 1-3-2-6-4-7-8 0-2-3-1-3-3 1-3-2-3-1-5-3-3-1-7-4-9-2-1-5-2-8 0s-8 0-12 2l-2 1c-3 1-7 2-9 6a3 3 0 0 0-1 3c1 4 2 8 6 10 2 3 6 6 4 10l1 4-5 6c1 3 6 0 8 0 3-1 7-1 9 1-1 3-4 0-6 0-4 2-9 1-11 5-3 1-2-3-2-4s-2-3-1-4c4 0 6-4 5-7 2-3 0-5-2-7-1-3-5-4-6-7l-1-7c-1-4 2-7 6-8 2-2 6-2 7-5 2-2 6-3 6-6h-6c-1 0-3 0-2-2h5c1-2-2-1-2-2-1-3 1-5 3-7 0-2 2-3 5-4l1-3Zm-20 0c2 1-4 2-2 4 1 2 2-2 3 0 1 4-8 2-6-1 1-2 3-3 5-3Zm73-1 2 1c4 0 7 3 11 3 2 1 0 5 2 5 2 1 2-2 3-1 0 3-2 3-3 4 0-1-2-2-3-1l2 6c1 2 3-1 4 1 0 2-2 1-3 2l-2 1c-1-4-1-9-5-10-2-1-2 2-3 3v-2c-1 0-3 0-3 2-1 1-1-2-2-2 1-1 1-3 2-2 2 0 4-2 7-1 1-2 1 0 1 0 1 0 3-2 2-3l-2-1c0 2-2 1-2 2l-3-1c-1-1-1-3-3-3-2-1-2 1-3 1-1-1 0-3 1-4Zm41-2c1 0 2 2 1 3s-3-2-1-3Zm-85-2c2-2 4 3 1 4-1-1-4-1-4-3l3-2v1Zm87-3c2 1 4 0 6 2 2 3 0 6 1 10 0 1 0 4-2 5v4c1 3 6 3 7 6 2 4 4 8 4 13-2 5 2 9 1 14 4 5-1 11-5 13-3 2-7 2-10 2h-6l1 3c-2-1-5 0-5 2 2 3-2 5-2 8a15 15 0 0 1-10 7l6-5 4-7c1-1-2-1-1-3 1-3 1-6-2-9-1-2 2-5 3-8 0-1 0-4 2-5 3 1-1 4-1 6s-3 4-1 6l2 2c0 1 4 0 2-1-2 0-2-4-1-5 0 2 1 1 1 0l2 1-1 2h7l1-11-3-2c-2 1-4 0-5-1 0-2 0-3 2-3l-1 2h2c0-3 3-5 2-8-2-2-5 0-7-3l-3-1c-2 2-2-2-2-3h-3c0-2 1-1 2-2 2 1 0-3-1-1-2 1-2-2-2-3-1-1-4-2-2-4 0 0 1 2 2 0l1 3 1-1 3 3c2 1 0 4 2 6l5 2 5 2c3 2 0 5 0 7-1 3 2 5 3 7 2 2 0 5 1 7 1 1 2-1 3-1 1 1-1 2 1 2 1 2-3 2-2 0 0-2-1 1-1 1-2-2-3 4-1 2 2 1 1 3 1 4 3 0 6-2 8-4 1-1 2-3 0-3l1-11c-1-1-2 1-2-1 1-2-2-5 1-8 0-3-2-7-4-10-1-3-4-3-6-6-2-2-3-5-2-7 0-2 3-2 2-4 0-3 1-7-1-10-4-1-7 0-10 1 0-4 5-3 7-4m-2 66c-1 1 1 3 2 1 1-1-1-1-2-1ZM195 39c2-1 4 1 4 3-1 2-4 2-5 0a2 2 0 0 1 1-3Zm64-1 3 1c1-1 2 2 3 1 1 0 3 1 2 2-2 0-4 0-6-2-1 1-3-1-2-2Zm28-2c2 0 3 1 1 2-1 1-2-1-1-2Zm-71-2v1c1 1 3 0 2 1l-4 1c-1-1 0-3 1-3h1Zm-18-7h2c2 0 1 3 0 3-2 1-4-2-2-3Zm35-7c2 0 3 2 2 3-1 2-3 2-4 1-1-2 1-3 2-4Zm7-2c3-1 3 4 1 3-2 0-2-3-1-3Zm37 0h9l5 1c4 4 6 8 7 13 2 2 3 6 0 7-1 3-3 0-5 2-2 0-1 5-4 3 1 3-1 2-2 1-1-3 2-3 3-5 2-2 5-2 7-3 1-2-1-3-1-4-1-2-1-6-3-7l-3-4-12-1c-4-1-6 3-8 6 0 1-2 1-2-1 2-3 4-8 8-8h1Zm-29 0c3 0 8 1 8 5l1 12c-1 1-2 3-4 2-1-2 2-4 1-6 0-3 0-9-5-10-2 0-4-3-1-3Zm-22-3 3 2h1c-1 1-2 0-1 1-1 0-2-1-3 1v2c1 1-2 1-3 1l-2-3c-2 0-5 0-6 3-1 1 2 1 1 2 0 2-2 4-4 3-1 3 2 5 1 8l-2 5-4 4c-1 1-3-1-3-2-2-1 0-4 2-3 1 0 1 2 2 1 2-2 4-6 2-9 0-3-2-7 1-9 3-1 5-5 8-5 2-1 6 0 7-2Zm6-10c2-1 4 3 2 3-2-2 0 4-3 2-2-1 0-4 2-5h-1Zm15-5h1a3 3 0 0 1 2 2c0 3-3 3-5 2-1-1 1-3 2-4Z"/></svg>