
<!-- Uploaded to: SVG Repo, www.svgrepo.com, Generator: SVG Repo Mixer Tools -->
<svg fill="#214784" height="800px" width="800px" version="1.1" id="Layer_1" xmlns="http://www.w3.org/2000/svg" xmlns:xlink="http://www.w3.org/1999/xlink" 
	 viewBox="0 0 512.664 512.664" xml:space="preserve">
<g>
	<g>
		<path d="M496.332,476.332h-140c-2.212,0-4,1.788-4,4c0,2.212,1.788,4,4,4h140c2.212,0,4-1.788,4-4
			C500.332,478.12,498.544,476.332,496.332,476.332z"/>
	</g>
</g>
<g>
	<g>
		<path d="M244.332,476.332h-228c-2.212,0-4,1.788-4,4c0,2.212,1.788,4,4,4h228c2.212,0,4-1.788,4-4
			C248.332,478.12,246.544,476.332,244.332,476.332z"/>
	</g>
</g>
<g>
	<g>
		<path d="M152.332,428.332c-2.212,0-4,1.788-4,4v24c0,2.212,1.788,4,4,4c2.212,0,4-1.788,4-4v-24
			C156.332,430.12,154.544,428.332,152.332,428.332z"/>
	</g>
</g>
<g>
	<g>
		<path d="M152.332,360.332c-2.212,0-4,1.788-4,4v44c0,2.212,1.788,4,4,4c2.212,0,4-1.788,4-4v-44
			C156.332,362.12,154.544,360.332,152.332,360.332z"/>
	</g>
</g>
<g>
	<g>
		<path d="M286.924,5.18c-10.46-3.276-21.556-5.008-32.084-5.008c-58.732,0-106.508,47.56-106.508,106.016v230.144
			c0,2.212,1.788,4,4,4c2.212,0,4-1.788,4-4V106.188c0-54.048,44.192-98.016,98.504-98.016c9.732,0,19.996,1.604,29.696,4.64
			c2.112,0.66,4.352-0.516,5.012-2.62C290.204,8.084,289.032,5.84,286.924,5.18z"/>
	</g>
</g>
<g>
	<g>
		<path d="M300.332,0c-28.38,0-60,49.752-60,121.148v387.516c0,1.244,0.58,2.416,1.564,3.172c0.704,0.544,1.564,0.828,2.436,0.828
			c0.344,0,0.692-0.044,1.032-0.136l112-29.92c1.748-0.464,2.968-2.052,2.968-3.864V106.188C360.332,46.644,333.976,0,300.332,0z
			 M352.332,475.672l-104,27.784V121.148C248.332,62.988,273.6,8,300.332,8c28.672,0,52,44.048,52,98.188V475.672z"/>
	</g>
</g>
<g>
	<g>
		<path d="M264.332,236.332c-2.212,0-4,1.788-4,4v32c0,2.212,1.788,4,4,4c2.212,0,4-1.788,4-4v-32
			C268.332,238.12,266.544,236.332,264.332,236.332z"/>
	</g>
</g>
</svg>