<?xml version="1.0" encoding="iso-8859-1"?>
<!-- Uploaded to: SVG Repo, www.svgrepo.com, Generator: SVG Repo Mixer Tools -->
<svg fill="#214784" height="800px" width="800px" version="1.1" id="Layer_1" xmlns="http://www.w3.org/2000/svg" xmlns:xlink="http://www.w3.org/1999/xlink" 
	 viewBox="0 0 488 488" xml:space="preserve">
<g>
	<g>
		<path d="M484,479.164H4c-2.212,0-4,1.788-4,4c0,2.212,1.788,4,4,4h480c2.212,0,4-1.788,4-4
			C488,480.952,486.212,479.164,484,479.164z"/>
	</g>
</g>
<g>
	<g>
		<path d="M160,239.164c-2.212,0-4,1.788-4,4v32c0,2.212,1.788,4,4,4c2.212,0,4-1.788,4-4v-32
			C164,240.952,162.212,239.164,160,239.164z"/>
	</g>
</g>
<g>
	<g>
		<path d="M144,427.164c-2.212,0-4,1.788-4,4v28c0,2.212,1.788,4,4,4c2.212,0,4-1.788,4-4v-28
			C148,428.952,146.212,427.164,144,427.164z"/>
	</g>
</g>
<g>
	<g>
		<path d="M144,363.164c-2.212,0-4,1.788-4,4v40c0,2.212,1.788,4,4,4c2.212,0,4-1.788,4-4v-40
			C148,364.952,146.212,363.164,144,363.164z"/>
	</g>
</g>
<g>
	<g>
		<path d="M244,0.836c-58.316,0-104,46.384-104,105.592v236.736c0,2.212,1.788,4,4,4c2.212,0,4-1.788,4-4V106.428
			c0-54.724,42.168-97.592,96-97.592c53.832,0,96,42.868,96,97.592v376.736c0,2.212,1.788,4,4,4c2.212,0,4-1.788,4-4V106.428
			C348,47.22,302.316,0.836,244,0.836z"/>
	</g>
</g>
</svg>