<svg xmlns="http://www.w3.org/2000/svg" width="534" height="564" fill="none"><path fill="#214784" d="M255 564c97-28-1-125-41-91-7 14-4 10 7 2 36-11-13 11 1 26 0 7 19 17 18 11 1 1 3 5 4 2 14-5 2-5 8-6 7-1-5-6-5 1-32 8-31-41 11-33 8 2 28 5 24 15 3-6-11-1-8-4 3 1 4-1 4-3-3-3-4 3-7 2-2 0-4-2-2-2 13-2-29-9-33-2-4 9 14-10 12 17-6 13-23 0-14-11 6-8-15-7-2 15 2 10 34-1 19-3 9-3-7-5 3-5 1-1-1-4-3-3-1 2-1-4-2-5-1-2 2 0 3-1 5 0-5 3 1 4 2 0 2 7 4 2 2-3-4-2-2-4 4-7-10-2-6-5 32-7 42 47 15 59-151 3-2-214 83-127 109 26 34 77 29 22-2-1-6 11-4 12-94-38-44 136 11 38 0-6 4 0 7 1 167-24-205-183 53-174 0 7 11 4 13 1-2 8 7 6 4 11-3 2 1 6 2 3 0-3 7-7 9-6-2 14-12 8-9 13 3 7-10 0-5 6 3 6-7 1-7 6 8 3-6 4-5 7 2 4-6 3-2 5 0 2 7-1 4 2-1 1-2 6-4 4s-7 5-1 4c0 8-1 1-4 6-5 2 3 1 3 3 1 7-5-2-3 4 3 3-5 0 0 4 6 4 18-68 45-55-4 7 2 11 6 13-3 2-2 8 2 10 3 3-2 6 5 10-10 4 10 14 3 6-6-3 0-1-1-4-1-5 7-2 5-5-1-2-5 2-7 0-7-6 9 0 4-8 0-3-7-4-7-2-3 4-6-8 6-7 2-3-5 0-1-3 4-6-4 2-5-1-2-1 0-1 0-2 6-5-3 0-5-1s0 4-2 2c-5-4 12-8 5-9-6 4-3-3-1-5 1-2-9 4-4-1 5-7-5 0-2-5 1-2 0-4-1-3-10 7-2-5-6-1-5 5-3-4-6-2-2 2 1-7-2-2 0 2-8 4-2 4 5 0-5 8-7 4-4-3 4-2 1-4-3-1-1-4 0-3 1 9 10-12 3-3-1 3-1 1-2-1 0 0 2-3 0-3s-2 5-4 4c-3 0-1 6-6 3-2-2-3-1-2 0 1 3-7 3-5-1 1-4-3-2-2-3 3 0 5-8 1-4-1 2-2 1-3 1 5-13-3 3-5 1-4-2 1 5-4 4-8 0 4-5 4-8 1-2 0-4-2-1-9 13 0-5-5 0 0 4-9 6-7 4 1-4 4 0 3-6-1-5-1 2-2 3-1-14-1 3-5 2 2-22-4 13-6-8-2 0 0 12-5 7 1-7-1-8-2-1-2 7-1-10-4-2 0 3 0 3-2 3-4 1 0-7-2-8-2 0-1 8-3 7l-2-6c0 1-4 14-5 5-1-10-3 8-5 2 1-12-6 6-6-3 0-4-2-4-2 0 1 4-4 4-3 2 1-8-3 1-5 0-3 1 1-3-1-4-1-3-5 5-6 4-7 2 2-2-1-5 0-1-8 6-7 1 1-7-4 4-8 1-2-1-2-1 0-2 2-2-1-5-2-3-16 12 53 9 36 15-9 6-12 16-21 19-6 1 3 1-1 4-5 11-2-1-8 0 6 7-1 3-1 10-2 3 3 1 2-2 3-4-7 26 0 31-4 12-49-73-29-43 7 5-5-9-4-11-2-8 4-13 8-9-1 1-9 0-7 3 0 2 3 2 3 1 1-3 9 1 12 0-7-4-1-20-9-23 1 4 4 8 0 12-3-1 0-12-5-14 6 10-3 18-5 28-1 2-6-13-4-12 2 0 3-5 4-6 3-7-11 1-6-11-1-4 3-7 2-3-1 6 4-4 4-6 2-7 0 6 5 4 5 1 2-9 6-3 4-3-13-10-12-17 68 25-70-105 18-69 1-1 2-3 0-4-5-5 16-3 19-8 50-66 85-16 130-67 98-44 32 138-14 74 7-5-3 4 0 6 3 4 0-2 6-8 0-3 4 4 4 2 3-6-4-4-5-6 0-2-6-1-4 1s-6 4-6 9c0 4-5-2-1-3l7-8c-5-7 6-10 8-18 0-13 7-6 2-16 17 4 19-36 33-2 3 2 8-2 9 2-3 2 2 6 1 2 2-6 6 0-2 7-3 4 1 6-3 9-1 2-2 3-1 4 2 2-4 4-3 7-11 11-5-1-11 1-1 3 5 4 0 5-3 3 1-1-1-1-8 0 3 1-6 4 0 2 4 5 5 3 1 0-2-3 1-1 5 3 0-6 5-2 2 3 4-8 6-5 3 6 6-16 5-2 13-14 14-45 0-50-7-12-30 4-17 1-1 3-5 1-6 2s-5 3-2 3c2 7-9 0-7 8 1 8-5 0-8 4 0 4 2 8-3 10-13-14 0 15-16 2 2-1 0-9-1-3-3 4 2 12-5 12-3 0 0-5-4-4-2 0 0-4-1-5-3-2-1 7-4 9 4 9-9 4-6-3 2-14-2 2-5 4v-9c-4 1 1 16-5 16-10 1 5-8-4-5-9 5 1-9-4-10-14 24-49 46-39 62 1-1 1 9-2 2-4-4 0 3-1 4 9 7-3 1 2 10-2 23 25 44-19 21-23 8-32-48-29-23-16 45 164 31 182 92-3 5 7-2 2 6-3 2 3 1 4 2-9 6 6 0 0 7-4 4 7-1 2 3-5 5 3 0 3 4 1 3-7-1-5 2 1 1 1 1-1 2-6 4 5 0 7 1-3 3-9 7-12 7-8 4 10 0 11-2 2-2 2 5 1 3-2-3-6 1-3 3 2 4 5-3 4 3-10 9 0-6-14 0-13 5 14-3 3 5-1 1-5 1-4 3 3 1 16-7 7 1 0 3 9-4 4 1-1 1-2 2-9 4l-2 2c20-4 8 3-1 7 1 2 10-2 13-3-3 5-9 7-15 6-10 3 7 2 10 1 2 0 2 1 0 3-1-1-1-2-2 0-3 6-16-4-16-1-1 3 13 4 12 6-6 3-11-3-15-5-1 4 7 9 10 8-1 5-12-2-14-2-3 4 19 6 9 6-26-8 0 9 8 0-8 16-35-8-19-8-2-8-6 0-8 3-12 4-19 9-6 18-5 4-12-16-19-15-2 1-6-6-9-3-3 2 12 6 9 8l-2-1c-2-2-8 4-4 3 2-2 3 1 2 2 0 1-3-3-4-1-4 2 3-4 0-5-3-4-4 3-6 1-2-4 4-3 1-8-5-9 7 2 6-4-85 55 187 30 34-108 6 6 0-12 3-13 3 0-1-5-1-2 0 2 0 2-1 1 1-5-5-4-1 0 0 6-2-3-3-4-1-3 4 2 4 0 2-3-2-2-4-3 3-2 0-5-1-3-1 1-3-1-2-2 2-2-4-4-3-1s-3 0-1-1c3-4-6 1-4-1 2-1-2-4-3-2-15 1 23 5 14 31-28-19-72-6-95-30-16-40 3-75 31-88 2-8 5 12 15-3 6 0 15 4 17 13-6 8 8-4-3 8-3 4-4-1-6 4 0 5 3-4 4 1-4-1-2 7-4 4l-1-2c-5 23 1 7 10-5 107 43 129-141-4-72-16 35-36-9-86 47-38 15-53-53-34-73-4-12 8-6 3-18-1-4 8-8 1-15 2-3 4-7 1-10-4-7 6 1 4-16 2 0 3-5 2-8 0-2-5-2-1-5 9 9 6-1 11 4 0 3 8 3 5 6 4 35 0 15-8 32 3 13 2-8 7-4 2 0-5 6-3 7 0 4-3 0-4 4-1 1-8 16-2 11 1-11-1 5 4 2 1 0 1-2 2-1 3 4 10-9 6-7-7 1 1 5-5 5-1-1-1 2-1-1-1-4-3 2-3 0v-4c-2-5 5 6 7-1 2 3 9-4 5-3-6 2 8-5 3-6-3-1 5-3 4-5 0-1-4 0 0-2 7-5-5-2 1-6 2 1 5-5 1-3-5 0 6-5 1-5-7 0 3-3 2-5 0-2-6 1-3-1 2-2 3-6 0-3-5 3 6-9 0-5-9 6 6-9-2-4-7 7 2-5 1-6 0-3-3 4-4 3 5-21-4 4-3-3 3-3 1-6-1-3-4 8-1-3-2-5-1-1-2 7-2 2-1-6-2 4-6 1v-5c-4 7-11 8-2-2 0-1-6-6-3-2 1 1 1 2-1 2-2 4-2-1-5 0l3 4v3c1 2-3 3-4 3-9-32-6 103-15 68-1-3-10-11-5-4 4 4 3 10-1 6-7-6 5 7 5 9-1 6-2 10-5 2-15-18 8 13-2 12 0 0-2-2 0-2 4-2-7-14-3-7 1 1 3 9 0 5-12-13 7 12 0 5-11-13 4 8-2 13 0-2 1-12-4-13-2 0 5 9 1 6-3-4 1 8 0 9-1 11 4-1 6-3-1 12-1 37 17 51-12-13-20-46-12-59-1 31 15 56 42 56-21 11-60 28-51-6 2-17-1-13 7 0 11 12-7-14-5-17-8-24-6-38-23-56 15-21 10-51 21-74 24-44 79-8 67 33-21 35-30 76 14 49 0-4-3 1-1-6 3 14 5-12 4-11-15 28-7 12-26 5-1-1 1 0 1-2v-1c-3 0-3-5-5-2 40-77 51 69-7 28 7-9-16 3 0 3 5 9 19 7 28 3 5 1-1 33 6 14-9-12 35-49-11-76 2-25-7-58-38-60-101 48 21 136-132 53-46-2-26-7-51 22-13-7-46-1-48-15-12-1 1-6-12-3 1 1-15-14-11-15 4 0 1-9 0-5 0 2-2 2-2 0-1-7 9 1 2-9 5 1 5-3 6-3-2 4 7 12 10 9 6-3 4 5-2 3-1 1 1 4 3 4 4 0 0-4 4-3 11-4 7 6 4 2-8 1 6 6 2 8-2 2-2-2-4-1-2 7 7 1 4 9C138-15-9 1 85 83c-2 17-16 31-9 44-4 3-3-2-6-4-9 3 18 37 28 7 3-15-6-3-3-2 1 1 1 2-1 2-3 1 0-11-4-7 1 6-3 2-2-2 4 1 3-6 1-3-1 3-4-5-2-4 6 2 2-7-1-1-6-9 15 1 9-9-3-7 16 6 16 8 5 8-2-14-5-8-2-1 2-2-1-4l-9-3c-5-13 8 1 14 1 35 10 39 12 30 45 28 88-22-6-88 6-3-10-11-5-1 2 3 7-32-25-18-16 10 8-10-14-11-12-1 3 7 5 1 6 2-1-2-6-2-3-5-2 4-3 0-9 0-2-2-4-2-2s-3 1-2 0c2 0 1-3 2-4 1 8 4-13 16-9 8 0 0 13 8 9-4-34-49 3-16 26 48 33-18 13 1 92 1 28 48 38 46 11 3 0-2-10 2-6 3 0-2-6-3-8 0-2 5 2 5-1 2-3 0 5 4 3 3-1-1-7 1-6 4 1 0-5 0-6-1-3 3-10-3-7-4 1 3 4 0 13-2 2-4-4-4-1v2c-2 3-4-8-1-4 7 4 3-4 2-6 2-4-2-5-4-4 0-3 5-1 2-7-1-3-2-5-6-5-1-2 4 1 3-2 0-5-2-3-4-3-2 1-4-6-2-5 36-46 95 133-8 158 0-4-3-3-5-2-7 0-7 17-11 9-2-7-16 4-10 8 2 0 3-1 2-3-3-1 5-5 5-2 3 2-9 10-8 7-5-8-13 7-8 9-89 109 109 74 79 125-3 49 38 8 45 25 2 5-1 20 4 11 3 3 4-9 2-10-4 0 2 6-2 6-1 2-2-7-1-7 4 0 2-7-1-2-4 0 5-5-5-4-4-1 3 0 0-3-1-2-5 0-2 2-8-3-15 4-20 3-3-4 1 7-2 1-2-6-1 3-3 0h-1c-1 4-1-4-3-1-2 2-1-3-3-1-3 1 0-4-3-3l-2-2c4-2-3-2-2-5 26-5 13-59-12-57-219-28 226-188 71 37 1 1-4 4-2 6 2 4 3 3 2 5-3 6 7 8 5 11-5 6 5 9 6 11-5 7 8 8 5 10-3 5 3 9 7 7 4 3-7 9 8 8 6 12 5 4 17 12 7 2-2-8 3-4 5 7 1-1 3-3 1-1 0-4-3-4-3 1 3 3-3 2-6-17-1 2-11-15 0-1-3-6-3-3 2 7-11 1-4-1v1c-1 1 1 2 2 2 3-1-2-2-1-4 2-1-5-6-3-2 0 2-3 3-3 6 8-23-20-26-14-64-1-6 8-13 4-19-3 0 2-8 2-5h4c3-1-7 15-2 14 2-12 20-38 24-44-6 3-3-3 1-4 3-2-6-1 1-5 2-2 2-2 1-3-17 14-2-32-60-40-42-2 19-10 26-1-3-6-20-7-26-6-20 5-8 0-21-7-4 2 11 8 2 13-1-4-6-9-7-8-1 3 6 8 5 10-2 4-6-11-9-8 5 7 7 18 0 3-3-3-3 3-7-3-7-6 3 6 0 7 2 11-5-8-7-7 0 4 7 13 1 16-2-3 2-7-4-13-5-4 6 15-1 5-5-9 0 2-2 2-2 2-7-11-7-7 7 14-1 20-4 3-5-4 5 13 0 9-1-1-2 0-2 1-1 7-3-9-5-8-1-1 3 10 1 8-2 1 0 4 1 4-6 6-4-9-9-10-2-1 5 11 1 7-6-5 1 4 2 5 1-1-6 3-4-1 0-6-7-13-3-5 2 10-8-3-8-1 0 0 7 11 3 9-3-3 0 3-2 2-3 0-3-10-6-8 2 6 4 18-3 3-5-6 2 9 0 7-4-2 3 3 0 4-4 1-9 13-13 6-4-8-2 3 1 5-1 2-5 0-6-2-3-4 0 7 2 5 3-1-1 2-2 0-4 1-8-10-9-6 1 7 11 7 10 10-2 2-11-2-13-6-10-17-2 8 7 8 6-1 1 4 1 7s-2-3-3 0c-4 3-10-2-13-6-3 0 4 8 7 8 11 3-5 6-10-4-7 6 16 14 17 5 3 9-15 5-19 4-7-68 176-134 181-158-5 7 13-6 8 1-2 8 3-4 4-4-4 10-1 12 2 1 2-9-1-17 3-2 0 1-3-1-1 2 4 4-6 11-5 13 5 1 6-9 9-10 3 1 0 9-4 10-5 5 9 2 7-12 3 0 2 11 0 14 0 2-6 4-3 5 4 1 5-9 9-11 1 1-10 28 0 8 1-3 2-2 1 1 1 12 10 1 7-7 5-6 2 8 0 9 2 8 7-16 3-15 0 2-6 4-3 1 10-9-12 4 1-6-2-5-2-13-2-19 3 0-1 15 4 18-3-9 5-18 7-24-2-2-8 12-8 9-1-2 8-12 3-11 1-2 1-6-4 1-6 5 3-6 1-6-1-1-5 6-5 4 6-11-7-3 1 5 3 7-2-4-4-5-5-1 6-7 2-8-1 0-5 6-6 5 5-4 2-8 8-5 8 6 10-20 9-6 2 12 4-14-4-18-1-1-2-4-1-6 0-2 5 8 6 7 5 2-2-3 0-3-6-12-11-7 12-13 19-5-11 4-13 6 0 2 6 7 3 1l23-8c-6 4-7 5-6 6 0 4-14 2-11 10 3 5 4-6 5-2 1 2 3 7 3 2-3-3 3-4 3-2 0 3 6-4 8-6 6-2-5 9-7 11 2 1 9-6 10-6 2 5 13-8 8-6-3 2-3-1 0-2 7-3-7 1-8 1 0-2 10-5 11-4 2 1-2 3 0 4-2 13 6-2 5-5-1-2-1-2 2-4 1-1 1-5 3-5-6 35 16 25 18 51-2-1-5-18-7-15-3 0 7 10 0 9-3-21-12 8-3-5 0 15 8 39 3 54-2-3 4-12-1-13-5-2 2-3 0-6 0-3-3 1-4 2-6 3 2 3 1 4-4 1-1 3-4-1-5 7-4-1-7 4 5 5-2 9 2 8s-3 4 1 4c5 0-1-11 2-10 8 1 3 20-4 16 1 3 7 15 4 4v-2c8 0 3-18 7-21 8 3-5 22-5 25 5 7 0-2 4-4 1 10 10-19 10-24-7 60 23 80 7 82-6 0-1 3 2 2 8-1 18 23 35 37 17 20 74 32 66 42 2 1 11 3 5 2-9 0 12 7 8 9-2-2-10-4-4 0 11 3 1 20 9 20 1-3 3 9-1 3 1 6-4 3-5 8 3 12-5 2-5 8 1 4-1 9-2 6 4-9-5-10-3-5 3 1-1 9-5 6 5 1 6-9 0-4-3 5-3-5-4 0 1 4-4 3-1 6 2 2-2 3-3 2-1-2-4 1-6-2-1-2-13 5-8-1 3-1 3-9 1-5-7 10-3-4-6-2 0 2-4 1-2 3 3 3-8 0-4-1 5 1 2-9 1-4-1 4-4 6-4 0-3-6 1 4-4 2-1 0-2 2-1-1 0-11-3 9-7-8-1 1 0 7-3 4-1-1-2-11-3-4 1 3-1 1-3 1-3 1 0-1-1-2 0-2-1-2-2 0-10 7-8-3-10 0-36 21 23 61-5 46 0-6-3 3-3-2 0-8-2 2-4-2-3-1 2-2 0-4 0-4-5 4-4 0 2 0 3-9 0-5 0 2-2 4-3 2-2-1 5-4 2-6-24-77 92-11 88-32-4-5 8 5 5-1-1-4-7-2-8-3 0-4 8 2 6-3-2-2 1-1 2-1 3 2 0-3-2-2-3-1 9-3 1-4-3 2 3-6-3-2-3-2 3-2 1-4-1-1-4 0-4 1h-3c6-5-4-1-5-3-5-3 6-4 4-7s-6 4-8 4c-1-1 3-4 3-5 0-5-5 3-6 2 2-2 2-8-1-3-6 7-2-2-3-4s-4 6-6 4c-2 0 1-6-1-5-2 5-6 3-11 2-9-2-1-6-2-12-2-1-3 8-6 7-6 4 3-8-1-9-2 2-2 11-6 7-2-1 4-4 1-8-1-2-1 7-5 6-5 1 1-5 0-8 0-9-2 5-5 6-6 2 1-6 0-7 2-3 0-4-2 1-8 12-1-3-2-5-3 6-9 11-3 0 4-6-8 1-6-5 4-12-5 3-7 3-5 1 9-10 4-10-1 0-11 12-8 5 3-3 2-5-1-2-4 4 0-4-3-2-1 4-7-3-3-4 6-3 1-5-2-2-1 2-2 2-3 1-4-2 8-7 2-7-2-1-3 5-5 3-1-2 5-6 3-7-1-2-5 7-6 3-1-2 6-6 4-7-3-2-5 9-8 1 1-2 8-8 3-8-2 0-4 7-6 5l1-3c2-3-3-8 3-8 5-4-8-3-8 3-4-1 4-6 3-7-1-2-4 0-5 3-1 2-4-5-2-6 4-6-1-3-3-2-3-3 5-3 3-6-3-2-4 6-6 2-1-1 0-2 1-3 6-9-4 4-3-16-3-1 0 15-4 10-1-7 5-21-2-27 0 7 4 13 0 23-6-6-1-28-15-29 4 3 15 18 8 23 0-3-3-18-8-17 1 3 9 12 4 18-2 0-1-11-6-13-5-4 4 7 2 9-4-6 2 9-2 11-2 3-1-4-2-6-5-22 1 19-4 8 0-3-6-13-4-6 1 4 4 10 2 13-1 4-9-15-4 2 1 15-1 4-5-1-1 3 5 16 2 18 0 10 11-24 14-26 4 3 4-7 7-6 7 0-8 9-1 7 13 5 7-11 11 1 2 3-8 1-3 4 6 4 5-7 7 0 4 4-9 3-3 6 2 1 5-2 6-2 5 7-3 4-4 6 2 4 8-2 8 2-7 2-4 6 2 2 3 5-1 4-3 6 1 2 4 2 6 0 2 2 0 5-2 5-5 3 3 4 5 0 49 45-20 18-22 28 1 6-4-5-4-1 2 5-8 10-10 8 0-3-4 0-2 1v2c-1 1-2-5-3-2-5 4 3 2-3 5-25 17-7 10-22 0 0 2 8 11 3 8-4-2 3 6 0 7-14-11 5 8-3 6-11-14 6 15-8 0-2 2 7 7 3 9-1 1 0 1-2-1-3-4-6-3-3-1 6 7 0 6-3 2-2 1 5 5 2 7-2 1 0 2-1 3-1 2-3-6-5-5-2 0 3 5 2 6 0 1-1 5-2 3-6-14 3 13-6-1-2 1 3 6 1 7-1 4-3-4-5-3 0 4 5 13-2 4-4-3 6 11-1 8 0-4-7-6-3-2 2 2 0 5 2 5 1 5-8-9-7-3 2 0 9 12 3 7-12-10 9 12-5 2-2 2 5 4 4 7-1 1 2-1 1 2-14-10 2 4-2 3-8-9-3 2 0 2l1 3c1 7-3 1-5 3-1 3 6 1 5 5 1 1-1 2-2 1-8 1 9 4 3 6-8 1 8 3 2 4-8 2 7 3 3 4-1 9 36 27 40 31-5 4 7-2 3 1-2 6 1 1-2 7-3 3 0-3-2-4-1 0-2 6-4 3-2-1-10-1-8 4s-3 1-2-3c3-1 0-7-2-3-2 3-9-8-5 1 2 9-3 1-3 5-2 3 10 3 7 0-2-1-2-3 0-3 2 3 3 13 10 7 2-1 0 3 4 3 5-1 6-2 4-4-4-4 2-2 2 0 2 3 1-2 3-2 5 6-12 5 10 6Zm-4-3c-2 0-4-4-3-5 3 0 4 8 5 2 1-5 3 6-2 3Zm-17-2c0-7 4 2 1 2l-1-2Zm24-1c-3-4-5-6 1-4 1 1 3 9-1 4Zm-27 1c-2-2-1-4 1-2 1 2 0 3-1 2Zm33-3c0-2 0-2 2-1 6 2-1-4-2-4 2-2 10 6 3 6-2 0-2 1-3-1Zm10-1c-2-2 2-2 3-1l-3 1Zm-13-1s2-3 2-1c1 1-1 2-2 1Zm-12 0h2-2Zm-41-1c-2 0-3-2-3-3 1-1 4 3 3 0 1-4 3 5 0 3Zm37 0c-1-4 3-8 6-4-2-4-5 6-6 4Zm33 0v-3c-2-3 5 0 4-4 7-7-1 8-4 7Zm-21-2h2-2Zm12-1-1-5c1 1 5 7 1 5Zm6-1c-1-1-4-1-3-3 2-2 6 5 3 3Zm-77 0c-6-7 4-22 0-5 1 4 2 0 2-2 6 9-2 3-1 6 0 1 0 2-1 1Zm6-3c-1-4 5 3 3 2s-2 3-3-2Zm59 1c0-2 2-2 2 0h-2Zm16-3-3-3c3-2 6 4 3 3Zm-5-1c-3-3 1-4 1-2-1 1 2 5-1 2Zm-5 0 2-1c1 0-1 3-2 1Zm17-2v-2c3-1 1 6 0 2Zm-94 0c0-3-5 1-4-1 2-2-1-9 2-7 1 9 1 2 5 2 2 2-2 10-3 6Zm88-2c-1-1 0-4-2-3-3 1-4-2-1-1 5-1 9 9 3 4Zm6-3c-1-2-5-1-4-4-1-4 7 4 4 4Zm3-1v-1c3-1 1 3 0 1Zm-12-3c-1-2 2-3 3-1 0 1-2 2-3 1Zm-95-1c-2-2 0-4 2-6 1 3-2 4 0 6 1 2-1 1-2 0Zm105 0c-2 0-6-5-2-4 5 2-4-8-5-1-2 2 1-6 2-4 2 1 4-1 3-3s-4 2-4-2c1-3 6 5 5-5 3-3-3-6-4-3-1 2-2-4 0-3 9 1 0-3 2-4h4c5 3-3 2 1 5 2 2-3 4 2 6s-4 1-1 4c3 2-3 2-1 4 0 1 1 4-1 3-6 3 9 6 4-1-3-2 4-1 1-4 0-5 2 8-1 12-1-1-5-5-4-1 1 1 0 2-1 1Zm-110-6c3-4-4-3-1-5 2-2-2-6 3-3 2 1-2 3-1 4 6 1 4 3-1 4Zm9-4c2-3-5-4-1-1 2 5-4-2-2-3 1-1 4 1 5 3 0 1-2 3-2 1Zm-6-5c0-4-5-2 1-4 5-3-2 7-1 4Zm-8-2h-1c0-3-4-2-2-5 1-1 4-3 4 0 0 1-3 2-1 3 2 2 2-1 3-1 1 2-1 5-3 3Zm110 0c-3-2 0-3 2-1 1 1-1 1-2 1Zm66-2-1-4c2-2 5 6 1 4Zm8-1c0-1-3-3 0-3s2 7 0 3Zm-3 0-1-3 1 3Zm10-2c-2-2 3-2 2 0h-2Zm-186 0c-2-1-3-3-3-5 0-7 10 7 3 5Zm1-1c1-1-2-4-3-3-1 2 2 5 3 3Zm189-1c-2-1 2-3 2-3 1 1 0 7-2 3Zm-198-2c1-1 2-8 0-5 0 5-7 2-4-2 2-7 4 3 9-1 5 0-3 4-3 5s-2 6-2 3Zm188-1c-17 1-30-33-10-36 3-2 14 6 14 1 1 9 19 12 3 2 18 7 7 8 12 14-6 4-2 12-4 10-2-3-5 3-2 3 2-1-1 4-2 2-2-3-1 0-4 0-6-1 0 6-4 3-2-2-2 4-3 1Zm-66-1v-2c1 1 3 5 0 2Zm80 0v-2c2-2 3 4 0 2Zm-266-2c-7-4 6-1 4 0h-4Zm270-1-1-3c3-3 4 6 1 3Zm-90-1c-1 0-3-3-4-1 0 3-5-3-1-2 3 1 2-2 3-2 1-1 6-2 4 0-2 0-7 2-1 4 4 1 0 2-1 1Zm-178-2c-5-2-1-2 2-1 4 1 1 2-2 1Zm270-1c-2-3-1-4 1-2 2 1 1 5-1 2Zm-41-1c-1-1 0-2 1-3 3-1 1 7-1 3Zm-168-2c-1-1-2-5 1-6 2-2 4 6 2 3l-2-1c-3 0 2 7 3 3v1c1 3-3 3-4 0Zm110 0v-1c2-2 2 2 0 1Zm-114 0c-3-1 1-7 1-3 0 2 2 4-1 3Zm214-2c-2 0 0-9 0-10 6 0 2 13 0 10Zm-45-1c0-2 1-3 2-2 2 1-1 4-2 2Zm-225 0c0-1 7 0 6-3 0-2 0-2-2-1h-4c1-2 7-1 5-4-1-1-7 1-4-2 2 1 3-5 0-3-1 2-3-2-2-2 6-1-5-3-3-4 4-3-4-3-5-6-6-5-13-5-20-7-1-3-4 6-5 0-2-6-1 2-3-2-1-4-2 6-5 6-3-2 4-13 5-9 2 8 6-4 8-4 1 1-1 4 3 4 2 1 5-7 4-2-2 4 6 1 7 2-1 5 9-1 7 3-2 5 7-1 5 3s8 2 6 6c0 2 0 3 2 3 3 0-3 4 2 5 2 4 3 21-7 17Zm223-5c-1-2 2-3 2-2s-1 5-2 2Zm64-2c-3-1 1-3 3-3 3 3 4 5-3 3Zm-233 0c-1-1 4-8 3-3-1 1 0 2 1 2 3 1-3 3-4 1Zm247-2c-1-5 3-2 5-2 3-1-7 7-5 2Zm7 1c-1-1 0-1 2-2 5-3-1 4-2 2Zm-36-2v-2 2Zm-49-2c0-5 6 0 2 1l-2-1Zm-163-1-1-1c-2-6 6 2 1 1Zm257-2 2-2-2 2Zm-91-2 1-2c2 1 1 3-1 2Zm-167-3c0-2 3 0 2 0-2 2-3 3-2 0Zm256 1c-2-2 3-1 1 0h-1Zm-86-1c-1-2 5-5 2-1l-2 1Zm19-3h2-2Zm-12-1 2-1c2 1-3 2-2 1Zm88-1c0-2 2-1 1 1l-1-1Zm-4-1 2-3c2-1-1 6-2 3Zm-370-1c2-1 0-9 1-8 4 1 0 6 2 6 3 1 2-6-1-7s4-6 2-1c2 6 4 11-4 10Zm-7-1c3-3-4-9 1-11 1 1 3 13-1 11Zm-8-1c2-1 0-4 2-4 5 1-3 6-2 4Zm128 0c-2 0-1-5-1-3 1 2 2 1 2-1 0-4-3 2-1-2 3-5 5 9 0 6Zm-123-1c-1-3 0-8 2-2 1 2-2 5-2 2Zm-11 1v-1c6-9 7 0 0 1Zm19-3v-1c2 1-1 7 0 1Zm-24 1c-1-2 5-1 4-5 2-5 2 9-4 5Zm-4-4c2 0 1-4 2-2 3 1-2 3-2 2Zm407 0 1-4c1 0 1 5-1 4Zm-396-4c-1-1-1-1 1-2 7-6 2 7-1 2Zm-17 1 3-1-3 1Zm10-1-3-6c1-2 6 8 3 6Zm-13-3c-3-3 1-1 1 1l-1-1Zm390 1c-1-2 0-2 2-2 6 2 0 2-2 2Zm-387-2c-2 0 9-3 5 0h-5Zm408 0c1-1 1-6 3-3 2 1-2 4-3 3Zm-22-4c-1-1-1-1 1-1 4 0 1 4-1 1Zm-388 0c-15-6 2 1 7-4 6-2-8 7-7 4Zm12-1c-3-3 3-2 2 1l-2-1Zm154-3c-7-8 9-7 0 0Zm-171-1c-4-1-4-3-5-6-3-8 7 2 10 0 4 2 9-8 8-2 0 3-8 5-13 3-8-3 4 6 8 3 5 0-7 5-8 2Zm177-9c0-1 0-3 2-3 1-1-2 6-2 3Zm-176-2c-1-4 4-4 3 0-1 3-3 3-3 0Zm454 0c-2 1-9-8-11-8-1 3 4 5 5 7 2 3-6-3-8-5-5-5 7-10 0-3 0 2 5 0 5 0 1 5 19 12 9 9Zm-448 0c0-2-2-3 1-2 4-1-2 5-1 2Zm426-1c-5-2-4-3-1-2s4 4 1 2Zm-421-1 2-3c0 2-1 6-2 3Zm450-1c-4 0-13-10-6-11 2 2-2 5 1 5 0 0 12 10 5 6Zm-21 0c-4-1-7-7-2-4 0 1 6 7 2 4Zm25-1c-9-4-9-13-1-15 3 1 4 7 8 8 3 1 9 3 2 3-5 3-10-10-11-5 1 6 14 7 11 9-3 4-15-14-13-7 1 3 10 10 4 7Zm-33-1c-2-3 3 0 3 1l-3-1Zm-10-4c-6-6-12-26 0-14-1 6-2-3-3-1-6 7 4 5 3 9-3 6 4 4 6 7 3 5-7-4-4 1l-2-2ZM5 412c-1-2 0-3 1-3 1 1 0 5-1 3Zm502-4c-3 0-1-1 1-1 4-2 0 3-1 1Zm-172-4v-1c4-4 4 4 0 1Zm-4-3 3-2c1 0-2 5-3 2ZM7 400c-3-2 3-5 2-2-1 1-1 4-2 2Zm424-8c3-2 0 8 0 2v-2Zm-420-4v-2c2-3 4 4 0 2Zm508-5c-3 0 4-4 3-1-1 2-1 1-3 1Zm-451-6c-1-3 0-1 2 0h-2Zm27-6c0-1 2-6 3-5 1 2-3 8-3 5Zm5-1 1-1c1 1-1 3-1 1Zm12-3c1-1 3-1 2-5 2 0 2 9-2 5Zm-88 1c-2-3 4-7 6-3-1 1-5 4-6 3Zm94-3c1-1-5-8 0-5 2 2 1 9 0 5Zm180-1v-3c2-1 0 6 0 3ZM49 350c0-5 13-4 3-1-1 0-2 2-3 1Zm17-7c-1-2 4-2 5-1 0 1-4 2-5 1Zm218-3c-2-1-2-2-1-2 2 0 2 4 1 2Zm-15-5c2-2 2-5 0-7 4-7 6 10 0 7Zm-172-4c6-10 11-20 14-32 1-6 3 3 4-1-4-6-1-10 0-17 0-10 7-4 5-10 0-1 0-4-1-2 1 4-3 4-1 0 0-4 0-3 1-2 3 3 3-5 1-3 0 2-4-4 2-2 1-4-4-2-2-9-2-4 6 1 7-1 4-6-11 1-5-6 7 2 1-3 7-7 1-2 3-2 2 0-8 12 2 15 0 35 2-3 0-33 3-14 5 3-2 21-3 30 9-13 2-31 11-44 0-3 8-6 3-1-3 3-1 9-5 12-2 1 0 2 0 3 4 3 3-14 9-14 2-1 7-5 4-1-9 8 0 23-7 34-1 14 8-16 5-21-2-2 4-14 5-8-3 12 0 5 4 0 3 2-1 6-1 8 2 3 6-9 5 0-3 6 0 13 1 6 4-23 6 9 3 13-31 8-44 41-71 54Zm32-36 1-5c0 1-4 8-1 5Zm-11 0c1 0-1-10-1-4l-1 1c-4-1-1 6 2 3Zm1-10c2-1-1-9-1-4-1 2-3 6 1 4Zm26-7c3-7 4-20 1-20 1 2-3 28-1 20Zm-20-20c3 0 4-5 1-3-2 1-7 4-1 3Zm349 70c-2-1-2-2-1-2 3-1-4-5 2-6 3 1 0 7 5 5 4 0-3 6-6 3Zm-59-19c-2-1 2-4 2-2 4 1 0 4-2 2Zm-15 0c-3-2 1-1 2-2 3 1 2 3-2 2Zm-79-2c-3-1 1-5 1-1l-1 1Zm3-2v-2 2Zm-17-3c-1-3-2-6 3-5 0 2-2 8-3 5Zm9-23c-1-1 0-4 2-1 1 0-1 2-2 1Zm-7 0c0-3 1-5 1-2l-1 2Zm-83-6c-1-8 2 2 0 4v-4Zm-56 2c2-3 0-17 2-18 3 2 4 18-2 18Zm6-8c1-6 0-12 2-8 3 5-3 21-2 8Zm148-1 5-4c2 0-5 5-5 4Zm-5-4c4-7 2-9-3-1-2 0 5-8 3-8-2-3-5 6-5 5-3-2 3-6 4-8l-6 2c-5 5 5-6 1-6-12 15 4-10-4-2-4 5-1-1-1-3 2-5-1-4-2 0-3-4 3-12 1-18-14-43 9 13 17 26 10 11 2 10-5 13Zm-134-1c-2 0 3-7 2-2 0 2-1 5-2 2Zm32-1c-1-3 2 1 1 1-1 1-1 1-1-1Zm6 1c-2-2 4-5 4-3 1 2-3 5-4 3Zm-27-1 1-2c2-6 1 3-1 2Zm-7-4c2-2 5-4 6-1 0 4-3 5-6 1Zm-9 2c6-8 7-22 5-33 5-2 2 38-5 33Zm32-2c0-2-3-8 0-4 2 2 2 10 0 4Zm127 1-2-3c1 0 6 5 2 3Zm-118-1c-2-3 9-4 4-1-1 1-3 4-4 1Zm-48-3c-9 2 4-9-1-15-3-2 0 9-4 11-5-18 15-19 4 1-3 5 4-1 4-4 4 0 1 11-3 7Zm7-2c-1-8 0-4 1-14 2-3-2-11 0-12 6-3 0 37-1 26Zm39 2c-1-2 6-5 7-4 0 1-8 6-7 4Zm-85-2c-2-6 2-2 2 1-1 2-1 2-2-1Zm63 1c-4 0-2-4 0-2 2 0 3 5 0 2Zm-146-1c0-4-3-5 2-4 1 2-3 1 0 3s-2 4-2 1Zm150-4-2-7c3 0 4 20 2 7Zm16 4c1 1 4-5 0 0Zm-26-2c1-1 3-7 3-4 0 2-6 9-3 4Zm-4 1c2-2 2-16 4-16 2 2-3 20-4 16Zm-141-1c-3-1-1-4 1-5 3 1-4 2 0 4 2 1 1 2-1 1Zm23 0 1-4c1 1 3 6-1 4Zm61-1c-2-4 16-24 7-17-3 3-4 2-6 0 2-1 4-9 1-4-2 3-5 1-5-1 2-1 5-9 1-5-2 4-8 0-4-2 6-8-6 1-6-1 0-4 8-5 6-8-5 4-14 2-9 0 2 0 6-3 6-5-1-2-7 4-9 2 0-2 8-6 7-11 0-2-7 12-10 8 2-4 13-19 8-22 0 4-5 17-12 15-2-4 7-5 6-10 1-3 0-4-1-1 0 3-9 9-8 6 3 1 6-10 3-6-2 3-6 6-7 3 0-2 7-7 1-5-12 6 5-10-7-2v-4c2-10-5 6-5-4 1-6-5 5-5-5 1-2-2-3-1 0-2 6-10-4-14-1l1-2c3-3-1-4-2-1 0 2-8 5-2 1 5-5-6-1-3-6 2-6-5 2-2 3-10 16 0-11-10 10-1 3 2-9 0-8-3 15-13 16-4 0-3 13-3 11 3-1 1-3-3-6 2-7 1-1-2 9 1 7 0-9 11-14 6-8-6 4 0 14-1 4-1-5 16-11 12-8-4 6 8-3 12-2 3-1 0 5 3 2 4-5 3 5 5 1 5-5 5 7 8 6 2-1-5-8 1-4 3 2 8 14 5 3-2-4 8 5 5 7-1 3 4 4 2-1-1-6 6 9 3 7-4 3 5 6 2-3-2-8 6 9 2 8-3 2 4 6 3 0 0-7 2 5 1 5-2 8 5 0 2-5 1-3 5 13 2 11v2c4 5 3-9 4-4 1 2 1 6-1 6-3 2 3 4 3 0l1-2c4 3-3 11 2 10l1-3c1-6 4 7 0 6-3 4 6 2 4-4-1-4 1-1 2 3 3 6-5 7-2 9 2 1 4-2 4-5 2-3 5 8 1 9 0 6 7-4 2-9-1-7 10 11 4 14-5 0-3-7-8 2-7 0 0 10 4 6-3-10 3-5 4 0 3 5 0-1 3-1 6-1 3-11 1-15 12 8-4 17 4 16 2 12-12 22-7 9-1-4-1 3-9 5-2 0-1 11-5 6-4-4 15-15 8-16 0 5-8 4-8 6s-6 15-6 11Zm7-30c-3-9-12-7-2-1 0 2 2 2 2 1Zm-60-50v-3c-2 0-2 5 0 3Zm-5-2c2 0 2-3 1-3-2 0-4 5-1 3Zm142 82 7-4s-7 7-7 4Zm-52-1c2-2 3-13 4-7 0 1 0 9-2 8 0-3-6 3-2-1Zm35 0v-3c1 0 2 6 0 3Zm102-6s4-9 3-4c0 5-1 14-3 4Zm-75 2c0-4-7-12-4-10 5 3 7 16 4 10Zm-12 2c-2-2 15-9 7-3-2 0-6 5-7 3Zm-56 0c0-8 8-21 3-31 6 3 6 33-3 31Zm21-3c-1-7 1-14-1-20 4-1 4 27 1 20Zm-136 1c-2 0-3-4-1-3 0 1 0 2 1 1 4-1 3 5 0 2Zm80-1c-2-5 1-6-1-11 2 1 5 16 1 11Zm-52 0c0-1-1-5 1-2 0 1 0 4-1 2Zm125-2v-5c2 0 0 12 0 5Zm18 1 6-5c4 0-6 5-6 5Zm-166 0c3-2 0-4 2-4 3 0-1 5-2 4Zm-11-1c-2-2-5-9-1-4 1 2 3 7 1 4Zm89-1 2-3c2-1-2 6-2 3Zm105-1 1-2c4-4-1 5-1 2Zm-19 0c-2-1 5-5 6-4-2 1-4 5-6 4Zm-8-1-1-4c1 1 3 7 1 4Zm-159 0 3-1c3 1-3 3-3 1Zm22-1c-1 0 6-5 7-3v1c-4-3-4 4-7 2Zm-10-1c-8-3-2-12-10-15-3-3 11 2 6-10 8-5 2-13 5-13 12 3 3-10 5-14 8 13 21 53-6 52Zm151-1c-1-4 1 1 1 1l-1-1Zm-165 0 1-1c2 0-1 3-1 1Zm258-2c-1-2 2-1 2-3 1 1-2 8-2 3Zm-127-1c2-3 0-10-1-12 2-2 8 20 1 12Zm-8 1c1-2 7-5 4-13 4-2 2 18-4 13Zm38-2c0-1 0-2 1-1 0 1 1 5-1 1Zm-165 1c-3-4 5-1 6-3 2-2 1 2 0 2-2 0-5 2-6 1Zm267-1v1-1Zm-96 1 2-2-2 2Zm-15-1-1-4c0 1 5 8 1 4Zm20 0c-5-7-11-21-3-26-9 14 8 28 3 26Zm-141 0 1-1c1 1 0 3-1 1Zm-41-1-2-5c2 1 5 10 2 5Zm133 0c2-3 1-10 0-13 3 2 3 13 0 13Zm49-3-3-9c0 2 9 15 3 9Zm-6 1c0-2 0-2 1-1s-1 3-1 1Zm10-1c0-2 6-8 0-4-5 4 1-2 0-4s-3 4-4 2c0-2 5-7 1-4-2 2-3-1-1-2 3-8 1 3 7 6 3 1-2 8-3 6Zm-178 0 2-1c4-1-2 3-2 1Zm161-1c0-2-3-8-1-9 1-2 4 11 1 9Zm-155 0c-1-1 2-3 1-1 0 0 0 3-1 1Zm-12-1c0-2 0-2 2-2 3 1-1 1-1 2 0 2-1 1-1 0Zm172-1-1-6c1 1 4 9 1 6Zm-56 0c-1-2-1-3 1-3 2 2 2-6 4-4 2 4-3 10-5 7Zm-108-1c-3 0-5-3-2-2 2 1 6 3 2 2Zm137-1c-4-2-7-7-1-3 1 2 3 5 1 3Zm-148 0c-2-3-4-6 0-3 4-2 1 5 0 3Zm154-2c0-18 21-19 32-28-5-8-2 0-4 1-12 1-25 7-34 16 6-16 22-11 24-20 1-3-15 2-17 3-5 0 0 3-3 4-8-5 16-10 19-13-3-2-8 4-6-3-1-6 7 1 7-3-15-8-10 9-19 8-4-5 5-7 1-7-5-1 5-12-2-10-3-10-10 11-9-1 4 1-5-8-1-8 6 13 5-1 1-2-10 3-18 22-17 16-1-4 9-12 5-12-1 0-6 7-4 3 3-6 21-14 5-8-8 4 7-8 9-7 3 1 8 3 6-4s7 4 7 0c-8-12-8 0-16 4-16 11-10 2-1-5 5-7-13 9-10 9-7 3 9-17 8-17 0-3-7 9-9 7 0-4 7-9 0-13-6-8 14 2 5-4-3-2 7-10 4-15-2-4-6-8 2-5 12 3-11-10-8 2-1 2 4 8 1 7-4 0-13 27-9 22 5-13 4 2-1 7-2 2 1 2 0 4-2 6-1-15-4-12-1 4 0-9 1-7 1 13 7-12 10-15 0-7-6 8-7 11-6 6 5-15 8-19-2-3-7 9-8 9 4-7 12-20 1-6-5 7 2-7 5-8s2-2 0-1c-4 2 1-4 1-2 3 3 7-5 6-7-3-4 10 5 9 3-6-15-19 5-15-3 9-8 1-3 6-10-4-10 6 3 5-3-13-7 1-6-1-11-3-2 7-5 6-7 17-7-5-5-7 2-10 18-9 27-17 45 0-60 49-63 99-32-6-1-17-11-24-8 3 3 26 6 12 7-7 7 6-4 8 9 5 3-4-8-1-7 7-2 36 18 20 14-2 1 11 6 12 6 2 1-4 1 0 3 3 0 12 8 7 6l-4-1c0 1 9 6 3 3-6-2 6 7 6 5 2-1 7 14 3 7 1-10-18 0-7-2 6-5 2 10 5 4 2-1 8 7 7 10-2-1-8-3-3 1 4 2-1 1-3-1-5-3-4 1 2 4 3 1 1 17 3 5-1-7 6 2 3 2s3 7 3 8c0 3-4-5-5-3-4 3-7 2-5 7-2 5 10 0 9 7-2 0-3-7-6-3 1 3 8 5 8 8 1 4-8-7-8-3 1 1 7 5 6 6-22-8-110 31-115 51Zm23-30c1-2-4-2-2 0h2Zm1-7c1-1 0-4-2-2-1 2 0 3 2 2Zm37-3c1-1-3-3-3-4 2-1 11 3 6-2-5-4-6 0-9 1-5 0 6 7 6 5Zm-26 0c-3-10 4-1 4-5 1-1-3-1-1-2 4-1 9-4 3-4-5 1-5 4-5-1-3-1-2 5-4 5 0 0 1-8-2-4-2-1-5 2-1 2 3 0-2 2-2 3 0 2 3 2 4 2 0 1 2 5 4 4Zm7-2c3-4-4-3-2-1l2 1Zm15-6h-1c-1 1 1 2 1 0Zm-44-2c2-2-5-3-1-5s-6-3-4 0c1 1-1 4 2 4 1-1 1 2 3 1Zm45-1c2-2-5-4-2-1l2 1Zm-16-1c1 0-1-3-2-2s0 3 2 2Zm32-1c5-12 5-7-6-9-2 1-1 3 0 3 2 0 2 7 6 6Zm-24-2c1-2-4-3-2-1l2 1Zm16-1c1-1 0-2-1-3-2-2-1 5 1 3Zm-46-2 1-6c4 2 4-10 0-8-2 2 0 6-4 1-2-3 4-1 0-4-1-1-5 6-2 6l2 1c-2 2-3-1-4 0-3 1 8 7 4 6s1 5 3 4Zm88-1-1-3c-4-4-2 5 1 3Zm-10-2c3-2-7-4-1-5 2-3-13-1-3 2-1 1-2 2-3 1-2-2-2 3 0 2 1-1 2 1 3-1 1-1 4 3 4 1Zm-71 0c7 0 2-10 10 0 3 0-6-12-7-7 0 2 0 2-1 1-4-4-5 9-2 6Zm39-1c1-1-1-3-2-2-1 0 1 4 2 2Zm-56 0c0-1-3-3-5-3 2-1 2-3 0-3-2-1 1 3-2 2-6 2 6 5 7 4Zm38-1c5-3-3-3-1-5 2 0 1-1 0-2-4-3-2 2-3 2-3 1-4 6 0 5 1-2 3 2 4 0Zm23-1-2-2c-4-1 1 4 2 2Zm-12-1c2-3-6-8-3-3 1 0 2 4 3 3Zm45-2c0-1-2-4-1-6 4-3-5-8-6-5 1 3 6 2 5 4-2 1 1 11 2 7Zm-93-1c2-2-3-4-3-1l3 1Zm70 0c3-1 2-5 0-2-3 1-2 3 0 2Zm-6 0c0-2 7-2 4-5-1-2-12 7-4 5Zm-32-1c0-1-1-2-2-1s1 3 2 1Zm21-4c2-1-2-2-2 0h2Zm-33-2c2-2-2-4-2-1l2 1Zm56-1c-1-5 2-18-7-12 1 3 7 0 5 4-1 2-1 9 2 8Zm-44-1c2-3 1-7 6-2 1 3 3 1 0-2 2-12-16 4-6 4Zm51-1c3-2-3-5-2-1 1 1 1 2 2 1Zm-39 0c-1-3 4-3 2-5-5-6 7-2 8-6 1-3 3 13 3 4-2-13-1-10-7-5-9-2-4-3-8 3-6-5-5 2 0 3 2 1-1 8 2 6Zm-32-1c2-2-3-2-1 0h1Zm53 0c4-6-10-4-4-2 2 0 2 4 4 2Zm-13-1c1-1-3-7-5-6-2 3 4 7 5 6Zm-36 1c1-1 0-4-2-4s1 5 2 4Zm-18-1c2-2-4-3-2 0h2Zm89-1c1-1-4-11-6-9-1 3 2 10 6 9Zm-96-4c1-1-3-2-2 0h2Zm98 0c1-1-1-2-2-2-2 1 1 4 2 2Zm-65 0c1-2-4-4-3-2 0 2 2 3 3 2Zm-18 0c1-2-2-3-3-1 0 1 2 2 3 1Zm26-1c2-1-5-4-4-1 0 1 3 2 4 1Zm-47 0c1-1-2-3-2-1l2 1Zm35-2c1-1-3-5-5-4s4 4 5 4Zm-32-1c1-1 0-2 2-2 4 0-4-5 1-7 4-2 7 8 10 7-6-18-26-4-13 2Zm111-1c2-2-7-7-8-6l8 6Zm-60-1v-5c-5-3-3 5 0 5Zm39 0c2-2-3-2-1 0h1Zm-73-1c1 0-1-2-2-1s1 3 2 1Zm60 0c-2-5 0-2 3-5 3 0 1-5-1-2h-3c-3-2-2 0-3 2-3 0 3 7 4 5Zm-47-1-1-2c-2-1-1 3 1 2Zm-47-2c0-2 4-6 5-8-2-3-11 13-5 8Zm38 1v-3c-1-8-8 5 0 3Zm72-2c0-2 0-12-3-12s-13 5-3 3c6-3 2 9 6 9Zm-47-1c-5-27-19-4-10-6 8-10 5 4 10 6Zm-21-1c4-6-2-3-3-4 0-1-2-2-3-1 0 2-5-5-3 0l-1 1c-1 6 3 0 4 1 6 0 1 7 6 3Zm-30 1c1-2-3-3-2 0h2Zm67-5c3-2-4-5-2-2 1 1 0 4 2 2Zm-33 0c0-2-3-3-3-1 0 1 2 2 3 1Zm29-1c1-1-1-2-1-2v-3c-2 0-1 2-1 3-2 1 1 4 2 2Zm-45-1-1-2c-3-1-1 4 1 2Zm54-2c2-21-18-6-10-5 11-12 6 8 10 5Zm-49-1c2-3-7-2-2 0h2Zm-18-1-1-2c-2 0-2 3 1 2Zm78-1c-1-2 4-7-1-5-7-1-1 7 1 5Zm-72-2v-2c-3-2-2 4 0 2Zm-3-1c0-1-2-2-2 0h2Zm17 0c1-2-3-3-3-1 0 1 2 2 3 1Zm73-1c1-17-15-2-4-6 2-2 3 11 4 6Zm-65 0c3-2-2-4-3-3s2 3 3 3Zm18-2-1-1c-2 0 0 3 1 1Zm28 0c3-2-3-5-2-1 1 2 1 2 2 1Zm-26-4c3-2 5-3 0-5-3-2-5 9 0 5Zm-4 0c1-2-4-2-2 0h2Zm36 0c3-8-5-11-7-3 2 1 5-2 6-2 1-1-1 7 1 5Zm-57-2-3-3c-3 0 2 5 3 3Zm-16-1c0-2 2-8 4-6 2 9 4 5 2 0-2-8-5-1-9 0-6 0 0 8 3 6Zm59 0c3-3-8-3-3 0h3Zm-32-1c7-13-19-6-2-4 2-1 0 7 2 4Zm-37 0v-3c-3-2-4 5 0 3Zm54-4c1-2-5-3-2 0h2Zm-12-2c2-2-1-3-2-2-1 2 1 3 2 2Zm-42-1c2-2-5-3-2 0h2Zm62-1c1-2-3-2-2 0h2Zm22-1c0-4-23-13-15-7 1 0 9 2 5 3-5 0 10 5 10 4Zm-60 0c2-1-2-3-2 0h2Zm27 0c-2-23-18 7-6-5 2-5 3 4 6 5Zm9-1c1-2-5-2-2 0h2Zm-46-1c1-2-2-2-1 0h1Zm19-1c1-2-2-3-3-1 0 1 2 2 3 1Zm-27 0c2-2-2-3-2-1l2 1Zm22-4c3-3-3-2-1 0h1Zm-21 0c1-1 0-2-1-2-2 1 0 3 1 2Zm44-3c2-2-3-3-1-1l1 1Zm-27-1-1-1c-2-1-2 2 1 1Zm-34-3c2-2 1-5 4-2 2 2 3 1 0-2-4-8-11 9-4 4Zm28 0c0-4-7-15-8-7-1 6-4 1-5 3 2 4 7 5 7-2 1-4 4 8 6 6Zm23 0c1-2-4-13-6-7 0 4-4 2-3 5 3 4 5-6 6-2 1 2 2 5 3 4Zm-44-7c1-5 15-7 10-8-5-2-17 12-10 8Zm-5-2c2-4 9-4 9-7-1-2-15 8-9 7Zm51 0c3-2-18-3-7-1l7 1ZM36 219c-6-3 4-3 6-2 3-2-8-6 0-5 4-4-5-8-2-9 6 4-2-6 2-5s0-3-1-3c-5-4 13 0 3 10-3 3 4 7-1 12 0 3-6-2-6 2h-1Zm189-1c-2-2-5-6-5-9 1-1 9 14 5 9Zm5-4c0-12 0 1-4-3-3-6 0-4 3-4-1-1-3-5-4-3 0 2-1-1-2-1-2 1-4 8-3 2 11-12 13 20 10 9Zm-201 0-2-6c2 0 5 8 2 6Zm18-1c-1-3 3-5 1-2-1 1 0 5-1 2Zm122 0 3-4c2 2-2 5-3 4Zm-136-1c-1-3 2-7 1 0h2-3Zm148-1c-1-7 14-13 19-13-3 2-16 7-17 14-1 1-2 0-2-1Zm-16 1 5-3-5 3Zm-7-1c4 1 11-9 11-6 0 2-11 8-11 6Zm53-1 1-3c0 2 1 6-1 3Zm-57-2c-1 0-4-2-2-2 2 3 10-8 14-8 1 4-14 9-10 10 2 0-1 2-2 0Zm-47-2v-1c1-1 3 5 0 1Zm-78 1c-1-2 0-9 1-4-1 2 2 6-1 4Zm6-1c-1-1-3-1-2-3 2-1 6 5 2 3Zm15-2c-4-2 1-9 3-5 2 3 0 7-3 5Zm2-1c1-1 0-4-1-4-2 1-2 6 1 4Zm113 1 2-3-2 3Zm-93 0c-1-1 0-3 1-1 1 1 0 2-1 1Zm221-1c-4-3-9-25 0-16-8-5 0 8-2 12 2 2 6 6 2 4Zm-118 0c-2-3 2-5 3-7 1 1-2 10-3 7Zm-22 0 9-8c7-2-9 11-9 8Zm-6-1c0-1 7-5 7-3-1 1-5 4-7 3Zm32 0 5-6c2 0-5 6-5 6Zm-149-3c-2-3-2-11-1-6s2 0 3 1 0 9-2 5Zm464 1c-1-3 3-1 1 0h-1Zm-386-1 3-1s-3 3-3 1Zm36 0v-2c3-3 4 5 0 2Zm11-2c1-1 6-7 7-6 1 2-9 9-7 6Zm140-2-1-4c1-2 2 10 1 4Zm-145 2c-5-3 8-7 7-10-3-1-8 6-12 6-15 4 14-6 11-12-4-4-1 2-5 4s-11 8-14 6c10 0 22-25 12-10-5 5-15 11-16 4 15 2 13-8 20-11 7 13 9 17-3 23Zm118-3c0-1 2-3 3-2s-3 5-3 2Zm-18 1c-2-1 6-1 7-2 0-5 30-16 17-9-9 0-16 14-24 11Zm-82 0c-2-3 3-10 6-11-3 2-6 13-6 11Zm-70 0c-1-1-3-3-2-4 1 0 7 6 2 4Zm73-1c0-2 0-3 1-2s-1 5-1 2Zm16 0c-2-2 10-5 6-2-2 0-5 3-6 2Zm-141 0c-5-8 6 4 2-4-2-2 5 1 2 2-1 0 1 2-1 2h-3Zm251-2c0-1-2-4-1-5 1 0 4 10 1 5Zm-242 1c-2-2 7-6 6-2 0 2-1 3-1 1-2-4-4 2-5 1Zm-24-2c-1-2 0-16 1-12 0 1 0 17-1 12Zm3 1c-2-3 1-1 1 0h-1Zm420-2c-1 0-2-4 0-2 0 1 2 3 0 2Zm-281-1h1c1 1-3 2-1 0Zm3 0c-1-2 4 0 2 1l-2-1Zm-125-2c-6-3-6 5-8-4-4-8 3 2 9 3 5 3 1-2 1-4 7 1 2 11-2 5Zm-14 2c-3-1 4-7 2-3-3 0 1 5-2 3Zm127-1 3-3c-1 0-2 6-3 3Zm-123-1c0-2 0-3 1-2s-1 5-1 2Zm127-2c2-6 18-12 11-6-3 0-12 10-11 6Zm286 1c0-2 3 2 1 1l-1-1Zm-276 0c-5 0 2-5 3-4 2 2 0 6-3 4Zm272 0c-4-5 13-8 3-9-2 0-1-1 0-1 2-5-11 4-4 3 0 7-6 0-2-3 4-5-7 3-3-6 4 1 23-12 14-1-2 3-1 5 1 3 2-1 0 2 2 2 2 2 0 5-1 2s-2-3-4-2c1-6-9-5-2 0 2 3 12 10 3 10-2-1 1-1 1-3-3-5-5 6-8 5Zm-416-1v-6c1 8 4-3 2-4-3-3 1 3 5-8 3-3-3 20-7 18Zm362 0 3-3-3 3Zm-307 0c-1-1-3-2-1-4 2-3 7 7 1 4Zm-24-2v-1c3-3 2 4 0 1Zm228-1c-3-2-5-2-4-5 1-10-7 2-12 1-23 5-17 0 3-4 6-1-4-3 5-3 5-4 15 17 8 11Zm-129 1c1-4 20-19 17-11-6 1-13 9-17 11Zm-3 0c0-1 2-4 3-3 0 0-2 5-3 3Zm-91-1c-1-3 2 0 1 1s-1 0-1-1Zm-14-1c1-1 4 4 1 2l-1-2Zm-9 1c-7-5 12-10 4-4-2-5-5 4-2 2 3 0 0 3-2 2Zm113-3s0-4 1-3-1 4-1 3Zm-105-1c-1-6 1-1 4 0-2 0-5 3-4 0Zm241-1-2-5c1 2 3 4 5 2 2-1-2 8-3 3Zm111 1c-5 1 4-4 3-2-1 1 1-1 1 1-1 0-3 2-4 1Zm-340 0c-1-3 5 0 2 0h-2Zm10-2c0-4-2 0-4-2-2-4 8-1 9 1-1 1-4 2-5 1Zm-17 0c-4-1 3-6 2-4-3 2 3 5-2 4Zm4-1c1-3-3-5 2-3 3 0-5 7-2 3Zm98-1v-1c2 0 1 4 0 1Zm-93-1c0-1-1-4 1-3 3-1-1 7-1 3Zm394-1c0-3-2-7 1-2 7-12-3 0 1-8 2-5 3-8 2-1-2 3 3 4 2 1 0-8 3-2 1 2-1 2-6 12-7 8Zm-406-1v-3c4-3 1 5 0 3Zm112-3c1-3-6-5-1-5s3 11 1 5Zm345 0 2-2c1 0-1 5-2 2Zm-353 1 3-4-3 4Zm-9-6 2-10c2 0-1 12-2 10Zm365-4 1-2c4-4-1 9-1 2Zm-217-2-3-7c2-1 6 9 3 7Zm-150-1c1-1 0-7 2-5 1 0-2 8-2 5Zm146-3-3-2c1-2 7 5 3 2Zm-143-7c-1-3 3-2 2-1 0 2-1 2-2 1Zm363-3v-4c4-5 4 7 0 4Zm-8-2v-1c7-4-7-2 1-6 2-4 4 4 6 5 0 2-5 6-7 2Zm-429-2c0-1-3-3-1-4 1 0 4 6 1 4Zm9-1c-4-3 1-2 3-1 1 1-1 2-3 1Zm350-3c5-28 41-6 11-5l-2 5c0 1-11 5-9 0Zm76 1-1-5c2-3 4 7 1 5Zm-431-1c-3-3 8-5 4-2-1 0-2 3-4 2Zm366-1c1-5 11-3 2 0h-2Zm-358 0v-2c2-2 4 4 0 2Zm-12-1 1-2c1 0 0 3-1 2Zm-54-1c-2-1 2-2 2-1 2 1-1 3-2 1Zm479-1v-2c1 0 4 5 0 2Zm4-1c-2-3 1-3 1-1l-1 1Zm-420-1 1-2c1 0 1 3-1 2Zm-8-1c-7-5-5-17 1-21 4 1 9 26-1 21Zm420 0c-1-3 4-3 1-1l-1 1Zm-343-5c3-3-2-2 2-6 5-4 0 7-2 6Zm208 0 2-2c0 1-1 3-2 2Zm-347-3c-2-4-1-1 1 0 2-1-1 4-1 0Zm128-1c0-3 2-11 2-5 1 1-2 12-2 5Zm147-2v-2c1-1 2 5 0 2Zm74-8c-9 1-19-1-15-17 5-4 28 18 15 17Zm-228-3c-9-2-2-11-3-14-2-2-3 7-4 9-2 6 1-11-2-4-5 11-1-2-3-4-1 1-4 10-5 5 5-9-3-6-2 1-16 1 0-19-11-7-2 0 1 4-2 3v-1c2-2 1-11-1-5 0 2-4 4-5 3-2-1 2-6 0-7-1 2-7 8-6 1 1-12-3 8-4-3 0-3-1-4-1-2-4 6-5-5-7-4-1 0-2 0-3-4-1-2-3 3-4-4-1-5-2 8-4-5-2-8-2 7-3-2-1-8-1-2-3-2-1 0 1-8-2-5-3 4 0-10-3-5-3 9 2-10-2-9 1-2 0-10 2-10s2-1 1-2c-6-2 8-1 2-3-4-1 1-5-1-5-5 0 5-6 1-3-4 4 5 2 4 0h1c4 0-2-3 0-4 1-1 8 4 4 0 6-9 32 3 34 16 2 8-2-1-2 3-1 0-16-4-5-3 5 3 5-3 2-3C81 4 64 41 90 58c12 19 82 9 56 34 0 3-1 11-2 2-13 6 10 21-5 12Zm-1-2c1-3 3-9 2-11-2 0-6 13-2 11Zm-21-8c2-1 1-12-1-5l-1 3c-3 1 1 5 2 2Zm14-9c1-2-2-4-3-2s3 3 3 2Zm14 0c2-3-3-3-2-1l2 1Zm-5-1c2-1-4-4-4-2l4 2Zm-17-8c2-1-1-3-2-2-1 2 1 3 2 2Zm-39 27c0-4 1-1 1 0 1 2-1 3-1 0Zm6 0c-1-1-3-1 0-2 2 1 4 4 0 2Zm-6-6c-1-5 1-2 2-1 0 2-2 6-2 1Zm2-5c-2-1-2 0-1-3 1 0 5 4 1 3Zm0-5c0-8 5 0 3-1-3-3-1 2-3 1Zm259-12c-1-8 4-3 2-10 5-4-4 12 2 8 0 2-3 2-4 2Zm-92-3c-2-1-3-2-1-2 1 0 5 5 1 2Zm98-3c5-16-6-4 2-15 3-2 0-4 0-6-1-1 3-3 0-4-5-1 3-7-2-8-2 0 0-3 0-4 1-4 2 12 6 5 1-4 3 15 0 5-5-10 1 31-6 27Zm5-10 1-1c0 2 0 2-1 1Zm-128 0-2-2c1-2 6 4 2 2Zm130-8v-2c2-1 0 5 0 2ZM57 42l1-14c-1 4 1 30-1 14Zm270 5c-2 0-1-2-1-3 1-8 6 4 1 3Zm0-8c-1-3 2-2 2 0h-2Zm28-2-1-3c2-3 4 6 1 3Zm-28-3c-2-4 6-2 4 1l-4-1ZM92 31c-1-3 0-1 2 0h-2Zm-12-2v2-2Zm271 0c-1-1-2-2-1-3 0 0 5 5 1 3Zm-5-2 1-2c1-3 1 7-1 2Zm-10-2c-3-2 4-5 2-1-1 2-1 1-2 1Zm5 0v-4c0 1 2 5 0 4Zm3-2c-2-3 2 0 2 1l-2-1ZM232 544c2-2-4-2-3 0h3Zm-112-29c4-2 10 2 10-2 0-1 5 1 4-2 0-4-13 3-17 1-3 0-4-2-6-5-6-7 3 13 9 8Zm19-2c2-1 2-3 0-3-3 0-5 4 0 3Zm118-15c2-1-1-5-2-1-1 2 0 3 2 1Zm-64-4c1-2-3-6-4-4l4 4Zm34-2c1-1 0-3-1-3-2 1-2 5 1 3Zm175-15c3-1 0-8-1-4 1 3-4 6 1 4Zm-6 0c2 0 0-9-1-4 0 2-4 4 1 4Zm-155-8c0-1-3-3-3-1 0 1 2 2 3 1Zm92-2c1-1 0-3-1-3s-2 5 1 3Zm92-1-1-2c-1 0 0 3 1 2Zm-79-5c1-1 0-3-1-2-1 0-1 5 1 2Zm58-27c2 0 7-1 6-3-2-1-12 3-6 3Zm-25-12c2-1 1-8-1-4-3 4-2-3-3-4-2 2-2 6-5 5-2 2 3 3 5 1 1 2 3 3 4 2Zm-136-11-1-2c-1 0-1 4 1 2Zm-213 0c3-5-10-1-15-12-6-4 8 15 15 12Zm218-1c2-4-8-3-3-1l3 1Zm-11-2 3-17c0-4-6-20-4-8 0 2 3 11 1 9-6-8 4 16-3 11-2-3-7-2-3 0 1-1 5 6 6 5Zm14-1c2-2 0-3-1-2-3 2 1 4 1 2Zm239-5c-1-2-5-6 0-5 9-6-16-1 0 5Zm-285-1 4-6c0-2-4 3-4 1l3-3c6-5-3-1-3-2s3-6 5-7c5-5-4 0-5 2-4 3 6-11 8-11 0-4-9 6-8 3-1-3 11-15 3-9-7 5 5-8 7-8 1-3-8 4-5 0 15-14-14-1-7 28 0 20-3-8-8-10-2 0 3 6 3 9 3 6 0 15 7 13Zm37-2c3-7 9-11 12-9 2 1 3 0 2-1-4-8-19 10-14 10Zm23 1c1-2 5-3 3-6-2-1-2 4-4 2-4-4 0 3-2 2-4-1 2 4 3 2Zm-30-2c3-3-11-9-5-4 2 0 4 5 5 4Zm261-3c-1-3-5-9 1-6 1-13-13 7-1 6Zm-53 0c2-1-2-6-3-5h-1c-4-1 1 7 4 5Zm-164-3c1-1 0-2-1-2s-1 3 1 2Zm-234-1c1-1-2-7-3-7 0 2 0 8 3 7Zm248-1c2-3-5-2-1 0h1Zm-8 0c-4-6-27-26-32-19 9-3 23 14 32 19Zm36-1c4 0 6-5 1-3-2 1-8 4-1 3Zm-23 0-18-18c-1 2 8 10 8 12-5-2-10-14-15-16 6 12 16 21 25 22Zm-249-2c2 0-4-10-4-7 2 2 0 9 4 7Zm279 0c1-1-6-9-6-8-1 1 4 8 6 8Zm4-1-6-6c-12-12 7 11 6 6Zm168-1c-5-6-2-4-1-10-7 0-5 12 1 10Zm-259 0c1-3-1-14-4-15 0 0 2 17 4 15Zm29 0c3-7-19-16-25-10 7 0 20 1 25 10Zm-24-1c1-2 0-6 4-6 9-2-11-4-4 6Zm188-1c2-2-5-3-2-6 2-6-11 8 2 6Zm-191-6c-1-5 5-20-1-23-1 0 2 8 1 11-1 9-2-4-4-4-2-2 3 22 4 16Zm-22 0c2 0 2-6 2-7-3-2-1 6-4 4-2-1 1 4 2 3Zm213-3c1-2-3-4 0-6 1-6-10 9 0 6Zm-138 0c5-5-3-2-6-3-2 1 4 4 6 3Zm141-9c1-3-4-2 0-6-4-2-7 8 0 6Zm-113-1c2-14-12 0-4-3 4-4 1 5 4 3Zm-98-1 3-6c1 0 3 9 4 4-1-13-18 0-7 2Zm-21-1c3-8 20-19 5-10-7 1 18-16 10-12-3 0-15 12-10 4 0-6 19-12 5-10 0-2 6-5 6-7-2-1 12-9 1-5-5 3 2-4 5-5 6-8-19 10-14 13 2 4-10 14-5 18 1 2-5 15-3 14Zm9-33 5-5-5 5Zm-15 29c3-12-21-23-29-22 8 5 25 7 29 22Zm242-2c1-1-1-4 1-5 5-7-10 4-1 5Zm-302-1c4-4-13-17-7-8 8 5 1 10 7 8Zm5-5c3-3-10-13-10-10 1 2 9 9 7 9-1 2 2 3 3 1Zm354 0c0-1-1-2-3-2-4 0 1 4 3 2Zm-351-2c1-2-2-6-6-10-10-4 2 4 3 9 0 1 2 2 3 1Zm300 0c-1-2 2-4 1-5-2-1-7 6-1 5Zm-296-3c1 0-1-4 1-4 9-3-11-18-6-10 2 1 6 7 5 8s-10-9-11-6c1 2 10 8 9 11-1 1 1 2 2 1Zm90-3c11-13-12-9-6-3 3 2 4-5 7-3 1 0-3 8-1 6Zm211 0c-1-2 2-5-1-5-4 0-2 7 1 5Zm-152 0c1-13 14-12-4-13-1-1-2-1-1 1 2 9 1 5 4 3 4 0-2 10 1 9Zm-110-3c0-4-25-11-26-5 10-1 20 3 26 5Zm266-3c-1-5 4-4 1-6-2-1-6 8-1 6Zm-300 0c4-2-2-8-6-11-4-2 7 9 5 10-1 1 0 2 1 1Zm69-1c-1-11 3-1 6-5-8-9-12 8-6 5Zm110-1c0-4-10-4-13-11-1-3 9-6 13-2 9 8 11 2 18 5 3 2 1-1-1-2-5-1 8-2 7-4-11 3-30-7-16 2 8 3-5 0-7-2-25-19-20 13-1 14Zm-15-15c-2-1 4-4 6-3s-6 3-5 5l-1-2Zm34 14c2-1-3-3-3-1 0 1 2 2 3 1Zm-167-1c2-4-17-7-21-3-1 2 17-1 21 3Zm-26 0c2-3-4-13-7-11 0 0 5 14 7 11Zm306-4-1-1c-2 0 0 3 1 1Zm-338 0c-1-9 3-1 4-4-2-8-14 6-4 4Zm36-1c14-6-7-28 2-4-2 1-6-9-9-8-1 3 7 9 4 11 0 2 1 2 3 1Zm25-3c1-3-16-2-9-5 2-1 6-1 8 1 3-13 22 4 28-20-1-4-8-10-13-9 6 6-8 8 2 10 8-1-4 18-4 10 2-1 3-7 2-8-7-4 2 11-10 10-5 4-2-10-7-8 0 3 4 9 0 10-4 3 1-10-7-10 0 3 6 9 3 11-1 2-2-7-5-8-6-6 4 11 0 11-2 3-3 3-3 0 3-4-8-14-6-7 8 19-6 8 21 12Zm19-15c3-5 0-10 1-15 7 1 5 14-1 15Zm93 15c5-8-1-12-7-11-2 2 0-9-6-3-5 2-8 4-2 9 3-1 0-6 4-7 3-5-1 9 2 5 1-2 5 5 5-1 8-3 0 10 4 8Zm-64 0 1-4c-1-11 4 8 5 3 0-2-6-14-7-6l-1 2c-4 0 0 8 2 5Zm-23-1c3-5 10-9 12-13-1-1-5 3-7 4-8 7 7-10 6-9 0-4-10 8-9 8-2 0 5-7 5-7 5-10 2-6-5 2 2-3 5-8 4-9-2-4-2 4-4 6-1 4-8 7-6 11 2 5 5 3 2 0v-2c6 2-1 11 2 9Zm40-8c2 0-4-7-4-5-1 0 3 6 4 5Zm-99-2c3-7-7-7 7-6-4-9-22 7-7 6Zm218-1c2-2-6-3-3 0h3Zm80 0c7-9 5-9-2-3-3-1-1 5 2 3Zm-260 0c0-2 0-9-2-8-2 0 0 11 2 8Zm-56 0c5-2-4-4-5-2-1 1 2 2 5 2Zm311-1c2-1 3-10 0-4-1 4-2-1-3 1s1 4 3 3Zm-251 0c2-2 1-9-2-8-1 0 0 11 2 8Zm141 0c2-3-7-5-7-9-6-4 4 12 7 9Zm-64-3c-2-5-6-12-4-15 0-7-4 5-1 9 0 1 3 8 5 6Zm42-5c2-1 1-6-1-3s-2 4 1 3Zm-48 0s-1-10-3-9c-1 1 2 11 3 9Zm-93 0c3-8 8 1 9-4 0-2-2-1-2-3-1-5-5 1-5-4 1-1 7 0 7 3 8 3-5-9-8-5-1 1-6-2-3 2 3 2-2 4 0 6s0 6 2 5Zm306-1c4-2-3-3-1 0h1Zm-202-1c4-2 0-8 0-10 1-1 7 11 7 6-12-21-12 6-7 4Zm-41-2c21 2 16-38 15-31 2 5-3 16-4 9-1-10-2-6-1 1-1 7-5 14-3 5 3-10-1-14-1-1 0 10-15 19-6 17Zm6-3c2-2 2-9 5-7 4 0-5 9-5 7Zm-1-4 1-2c1 2-3 7-1 2Zm5-6c-1-4 7-6 3-2-1-1-3 4-3 2Zm86 12c3-4-2-2-3 0h3Zm-38-1c3-12-8-4-3-3 3-3 0 6 3 3Zm-62 0c5-3 11-22 7-28-1 4 0 16-4 18 0 0 2-4 0-2-2 1 1-8 0-10 1-5-2-13-1-2 1 14-10 15-3 20 4 0-5 6 1 4Zm253 0c1-3-3-5-4-2 0 2 3 3 4 2Zm-317-2c1-1-1-4-2-4-3 1 1 6 2 4Zm228-1-1-2c-3 1-2 4 1 2Zm-237 0c2-3-1-9 4-6 4 0-5-4-6-2-2 4-5 10 2 8Zm106-2c3-1 5-15 2-10 1 2-7 12-2 10Zm-4-1c2-2 5-8 4-10 0-2-10 15-4 10Zm223 1v-3c-3-4-3 6 0 3Zm-107 0c3-1-4-6-4-3-1 2 2 4 4 3Zm-161 0c1-9 3 0 5-2-4-9-11 0-5 2Zm-17-1c7-5 10 3 1-10-2 0 2 4-1 7 0 2-2-2-2 0-2 2-2 4 2 3Zm195 0-3-3c-3 0 2 5 3 3Zm-136-1s4-11 2-12c0-1-6 14-2 12Zm143 0c0-3-3-3-2-1l2 1Zm-30 0c0-1-3-4-5-4-2 2 5 5 5 4Zm-181 0c3-4-2-6-2-8-2-5 8 7 8 4-11-18-14 4-6 4Zm65-1c4-5 3-20 1-23 1 3-3 25-1 23Zm149-1-1-2c-2 0 0 4 1 2Zm-133 0c3-5 5-26 4-8-1 4 3 5 2 0 0-8 2 2 2 3 0 6 3 0 0-6-10-16-9-19-9 1 2 2 2-10 2-11 4 4-4 20-1 21Zm115-1c1-1-1-2-2-1-2 1 1 3 2 1Zm-13 0c1-1 0-3-1-3-2 0-1 4 1 3Zm-145 0c5-2 6-32 3-17 3 5-9 19-3 17Zm135-1-6-11c-2 8-13 7-5 10 6 3 4-3 5-5 1 0 4 9 6 6Zm120-1c3 0 0-4-1-3-1 2 0 4 1 3Zm-77 0c1-1-1-3-2-1 0 1 1 2 2 1Zm-199-1c1-1-1-2-2-2-2 1 2 4 2 2Zm90 0c2 0 6-24 2-14 1 4-5 13-2 14Zm33-1c0-5 1-3 4-2 3-2-5-6-7-7-6-5 1 12 3 9Zm45-1c4-12-9-9-8-4 1 3 6 5 5 0 2-7 0 8 3 4Zm-29-1c-1-3-5-17-7-10-1 3-7-3-8 3 1 3 3-2 6 4 3 4 2-3 4-6 1 0 3 12 5 9Zm-145-5c2-3-1-2-3-2-3 0 2 4 3 2Zm150-3c1-1-3-10-4-5-1 1 0 3 1 2s2 5 3 3Zm-108-2c1-1-2-5-4-4 0 1 3 5 4 4Zm-59-1c6 1 2-8 1-4 2 1-7 4-1 4Zm63-1c2-3-4-6-1-6 2 0 3-1 2-2-4-3-4 2-7 2-8-2 4 8 6 6Zm19-1c2-1-1-8-3-8 3 7 0 10 3 8Zm-28 0c1-1 0-3-1-2-2 0 0 3 1 2Zm42-1-2-7c-2-3 3-10 4-5 0 2 1 2 1 0 10-2-6-10-1-10 6 3-2-7-3-6-2 2-2-6-4-4 0 3 0 5-2 1-4-6-4-11-10-10 2 2 8 29 4 13-4-1 2 5-3 5 2 4 7 2 8 6 2 4-5-6-6 10 3 7 2-5 4-7 0-4 6 4 5 6-1 4 2-1 3 3 1 2 0 6 2 5Zm-6-14c2-4 5 6 1 2l-1-2Zm7-2c-1 0-3-1-2-2-1-7 10 8 2 2Zm-5-5c-3-1 1-2 1-1 0 2 0 2-1 1Zm-5-2c-1-1 0-3 1-3 0 1 0 5-1 3Zm-1-7c-2-1-4-7-4-9 2 1 8 12 4 9Zm-29 24v-2c-3-4-4 4 0 2Zm20-1c4-3 4-9 3-1 3-5 6-8-1-12-1-3-6 7-1 5 4 0-5 10-1 8Zm-7-1c1-1 0-3-1-3-2 1 0 4 1 3Zm-13-1c-1-3 4-8 4-11-4 2-9 7-3-2 1-1 3-2 1-3-8-3-12 15-6 13 4-10 1 4 4 3Zm-5-8c0-3 6-8 5-6-1-1-6 10-5 6Zm25 7-2-3c-3 1 0 4 2 3Zm-12-1c2-1 4-5 6-5-4 3 2 5 2 2-2-1 1-2-1-4-3-2 2-3 2 1 0 5 5-8 1-5-1 1-3-7-4-1-2 5 0-5-2-4s-1 3-2 6c1 3-7 12-2 10Zm-4 0c2-2 4-9 2-8 0 1-7 11-2 8Zm-13-3c-2-4 8-13 7-15-4 1-12 15-7 15Zm55-3c1-1 0-3-1-3-2 0 0 5 1 3Zm-212-3c1-1 2-2 1-4-3-6-7 7-1 4Zm212-2-1-1c-2 1 1 3 1 1Zm4 0c4-1 0-5 1-7 2 11 3-6 0-12-4-8 1 7 0 8 1 8-2-6-4-5-3-1 2 5 2 6-2 3-7-9-4 0 2 9-1 1-3-2-4-5 0 1-2 2-3 1 8 10 9 7-1 2-1 5 1 3Zm-43-2-2-4c-3 1 0 6 2 4Zm14-1c5-5 1-1 2-5 2-5-6-12-4-6l-1 4c-3-7-5 10 3 7Zm-1-7 1-3c1 1-1 10-1 3Zm88 6c0-5 0-14 2-18-1-10-8 18-2 18Zm-271-1c5-2-4-8-2-4v2c-4-5-3 5 2 2Zm244-1c1-1-2-2-1 0h1Zm-73-1c2-3-6-3-4 0h4Zm4-1c0-1 0-2-1-1-2 0 1 2 1 1Zm76-1c1-1-1-9-2-10-3-3 0 13 2 10Zm-50-1-1-3c-5-5 0 6 1 3Zm-42-1c0-2 7 1 3-3 3 2 5-2 3-4l-1 1c-1 2-3-1-4 1-1 1-3 7-1 5Zm-157 0c1-1 0-5-1-5-4 0-3 7 1 5Zm252-1c0-9-1-1 4-6 7 0-4-16-1-6l1 3c-2 2-2-6-3-5-3 0 1 10-2 7-1-5-5-5-2 0 2 2-1 10 3 7Zm26-1c0-4 1-15 4-17-2-9-9 18-4 17Zm-105-2c3-3 4-12-1-10-1 1-7-3-2 3 2 3-2-1-2 0-1 2 3 2 1 4-2 0 4 5 4 3Zm19-2c0-7 6 3 6-3-5 0-4-10-6-7-1 3-5 0-5 4 0 3 3 1 4 3h-1c-3 0 0 4 2 3Zm-24 0-1-1c-2-1-1 3 1 1Zm15-4c1-2-3-2-2 0h2Zm79 0c0-4 9-6 8-8 2-1 8 1 5-5 0-4-6-7-3-3l1 5c-3 3-4-5-6-3 0 2 2 9-3 5-3-3 1 9-4 4-3-5 1 8 2 5Zm-59-3c5-1 2-4 0-6 0 0-5-15 4-5 3-1-6-8-7-9 0-4 0-14-2-8-4 8 1 4 0 9-1 2 2 1 2 2v2c-2 0-3 3-5 3-6 2 5 11 4 1 4-2-1 14 4 11Zm-17 0-2-1c0 1 1 2 2 1Zm-22-1c5-9-5-10-8-3 1 5 6 0 7-2 2 0-3 9 1 5Zm7-1c1-1 0-2-1-1s0 2 1 1Zm3-2c0-1-1-3-2-2 0 1 1 3 2 2Zm71-2c0-5 4 1 4-4 1-1 0-3-2-3-2 1 1 5-1 3-4-4-4 6-1 4Zm-60-1c1-3 8-2 4-5s4-1-2-8c2-6-4 4-3 0-1-7-3 4-5 3-4 3 1 2 1 3 0 3-4 1-4 3l5 1c5-3 4 2 0 1-4 0 2 4 4 2Zm95-1c3 0-5-15-3-5 1 3-2 8 3 5Zm-106-1c1-2 0-7-3-4-1 0-3-3-2 2 1 4 2 1 5 2Zm110-1c3-1 1-10-2-10-2-1 3 7 1 7-2 2-1 4 1 3Zm-42-1c1-1-2-2-1 0h1Zm-12 0c4-1 0-3-2-3-3-4-2 6 2 3Zm-66-2c0-3-13-13-6-5 1 1 4 6 6 5Zm-166-1c1-2 1-6-2-4-3 0 0 6 2 4Zm265 0c2-1-2-4-3-2 0 2 2 3 3 2Zm-15 0c1-1 0-3-1-3-3 1-1 5 1 3Zm41 0c6-2-4-18-3-12 5 7-3 13 3 12Zm-62-2-1-3c-2 1-1 4 1 3Zm39-1c6-6 2-4-4-5-1 2 2 6 4 5Zm-23-1c-1-4-5-14-8-5-4-1-8-2-3 3 6 7 5-4 7-4 0 0 3 9 4 6Zm-247-1c2-3-1-6-3-3 0 1 2 4 3 3Zm262-1c2-1-1-13-3-8-3 4-11 2-1 8 5-1-1-3 1-5 3-3 0 8 3 5Zm-69 0c2-1-1-2-2-1l2 1Zm38-1v-1c-2-2-1 2 0 1Zm65-1c6-6-3-23-1-3-1 3 0 4 1 3Zm-27-2c3-3-4-3-2-1l2 1Zm94-4c2 0 2-5 0-2-1 1-3 3 0 2Zm-60-1c5-3-6-15-3-7 3 3-2 10 3 7Zm-48-2c1-2-3-4-3-1l3 1Zm154-1c2 1 3-1 3-3 1-8-16 4-3 3Zm-6 0c1-7-9-5-5-2 3-1 3 5 5 2Zm-96-1c2-3-3-12-5-12-1 1 3 7 3 8 1 2-2 6 2 4Zm-22-2 1-2c0-3-5 4-1 2Zm-6-3-1-2c-2 1 0 4 1 2Zm31-1c3-1-1-10-3-10-2 1 3 9 2 9-1 1 1 2 1 1Zm-23-4c1-1-2-3-2-1 0 1 1 2 2 1Zm-33 0c0-3-8-4-11-10-5-1 10 13 11 10Zm172-1c3-1-2-4-5-3-1 2 4 4 5 3Zm-112-1c1-1 4-14 1-7-1 3-1 3-3 1-7-5 1 3 0 5 0 2 1 2 2 1Zm-22-1c2-1-4-4-2-1 0 1 1 2 2 1Zm136-2c2-1 0-2-2-3-3-1 0 6 2 3Zm-109 0c2-1 3-9 2-9-1 1-6 9-2 9Zm10-1c3-2 4-13 1-7 0 1-5 9-1 7Zm-4 0c3-2 0-15-1-6v2c-3-2-1 6 1 4Zm106-3c4-5-4-2-3-5-3-3-2 8 3 5Zm-89-2c1-3 1-8-1-8 0 0-3 14 1 8Zm17-3c2-3 0-9-1-5 1 2-4 10 1 5Zm73-1c3-4-3-1-2-5-1-4 3 1 5-2 0-1 0-2-2-2 0 2-4-3-1-2s5-6 1-3c-1 2-3-2-4-2-3 0 1 3 0 5-1 4-5 13 3 11Zm-64-2 1-5c-1-1-4 5-1 5Zm12-5v-6c-3-2-1 10 0 6Zm5-4c1-1-3-7-2-3 0 2 0 5 2 3Zm6-5c1-1 2-2 1-4-2-1-6 5-1 4Zm-424-3c0-5-16-10-6-3 2 1 4 5 6 3Zm428-1v-4c-1-2-3 7 0 4Zm4-3c1-1 1-6-1-5 0 1-3 8 1 5Zm-165 0c1-2-3-3-1-1l1 1Zm169-4c1-1 1-5-1-5 0 1-2 6 1 5Zm4-5-1-2c-1 0-1 3 1 2Zm-102-4v-3c-3 0-2 4 0 3Zm-288-6c2-2 1-7-1-4-3 2-2 6 1 4Zm-26 0c0-7 2-13 6-18 11-11-16 8-6 18Zm25-6c4 0 1-8 0-5-2 2-4 6 0 5Zm251-3c5-6-4 0-8-5-3 4 5 6 8 5Zm-2-4c2-2 2-7-1-4-4-3-2 6 1 4Zm-301-2c3-2-3-6-1-2l1 2Zm296-1c9-7 1-8 0-4 1 3-3 0-2-1 3 0-1-5 0-6 3 0 4-6 2-4-5-10-6 17 0 15Zm-25 0c3-2-10-16-7-9 4 3 4 9 7 9Zm-23-1-2-2c-2 0 2 4 2 2Zm84-2c3-3-3-3-2 0h2Zm-87-1c0-2-3-2-2 0h2Zm7-2c1-1-3-3-2-1l2 1Zm78 0-2-3c-3 0 1 4 2 3Zm-30-2c5-5-6-4-2 0h2Zm-52-1c2-2-4-3-2 0h2Zm79-1c2-2-3-3-3-4 0-4-4-2-5-4-10-7 4 9 8 8Zm-74-3c2-1 0-3-1-2-3 1 0 3 1 2Zm48-1c4-3-4-2-3 0h3Zm-25-2c2-2-4-12-8-12-1 2 8 9 5 10-2 0 3 3 3 2Zm64-2c3-11 0-7-3-11-1-5-4 3-1 4 2 1 2 8 4 7Zm-63-6c2-2-6-10-6-6l6 6Zm-23 0c2-1-4-4-1 0h1Zm24-4c2 0-4-10-6-8l6 8Zm56-2v-4c-2 0-3 6 0 4Zm-55-3c2-1-9-13-4-5 3 3 2 5 4 5Zm52-1c1-1 0-3-1-3-2 1-2 5 1 3Zm-3-2v-2c-2-1-3 4 0 2Zm-49-2c1-2-5-9-3-8s3-1 1-2c-4-3-2 1-3 3-1 1 6 8 5 7Zm-217-9c2 0 1-6-1-4 0 2-1 2-2 0-5-2 0 7 3 4Zm-6-4c2 0 1-5-1-3-1 2-2-3-4-1-1 2 3 6 5 4Zm222 0-1-2c-2 1-1 3 1 2Zm-1-6c1-2-4-3-2 0h2ZM99 48c2 0 2-7-1-4l-2 1c-4-2 0 5 3 3Zm228-21c3-1-5-9-2-4 1 2-1 4 2 4Zm6-7c2-3-6-10-3-4 2 1 1 5 3 4Z"/></svg>