<svg xmlns="http://www.w3.org/2000/svg" width="49" height="79" fill="none"><path fill="##000000" d="M12 59h.6v.2H12l.1-.2m-3.5.7c0-.2 0-.3.2-.4v.5l-.2-.1m5.3.2a1.8 1.8 0 0 1-.1-.5l.2.3v.2m-3.9 0h1.4l1.3.2.7.1.2.2v.2l-.4.1a2 2 0 0 0 0-.3l-.3-.1a5.8 5.8 0 0 0-1.3-.2 5 5 0 0 0-.7 0 5.5 5.5 0 0 0-.7 0h-.7l-.4.2v.3a.3.3 0 0 1-.1 0 .2.2 0 0 1-.1 0 .3.3 0 0 1 0-.2.3.3 0 0 1 0-.1c.1-.2.3-.2.5-.3h.6m2.4 1.3v-.6l.2.1V64l.1 1.2.5 1.7c0 .3.2.6.3.8.2.5.4 1 .7 1.3 0 .3.2.5.3.7l.6 1.2a.7.7 0 0 1 0 .3L15 71a4 4 0 0 0-.1-.4l-.7-1.4-.6-1.2-.4-.9c-.3-.7-.5-1.4-.6-2.2l-.2-1.3a5 5 0 0 1 0-.6 7 7 0 0 1 0-.8v-.9"/><path fill="##000000" d="M12.7 60.9a.5.5 0 0 1 .2 0l.1.2V63.2l.1 1 .3 1 .1.6a9.4 9.4 0 0 0 1.3 2.2l.5.5.7 1 .4.7.3 1.2h-.5a4 4 0 0 1-.5-.1.1.1 0 0 1-.1 0 .2.2 0 0 1 0-.1l-.2-.4-.2-.5-.3-.6-1-2-.4-1a11 11 0 0 1-.3-.7L13 65l-.2-1-.1-.8v-2.2m-2.9 2.4h.1v1.2l-.4 1.3-.4 1.2-.3.6h-.3a1 1 0 0 1 .2-.4 7 7 0 0 0 .4-.9l.3-1 .3-1.7a1.3 1.3 0 0 1 0-.3.1.1 0 0 1 .1 0m-6.1 7.6.4-.4c0 .2-.2.4-.4.5l-.5.8-.3.4-.3 1-.2.8v1l.1.9.3.6c0 .2.2.4.4.6l.2.1-.2.1c-.2 0-.3-.2-.4-.3a6 6 0 0 1-.4-.6c-.2-.5-.4-1-.4-1.6a4 4 0 0 1 0-.6l.3-1.2a5.3 5.3 0 0 1 .6-1.1l.8-1m14.4.2.4.4c.2.2.5.4.6.7l.7 1 .4 1.5a8 8 0 0 1-.2 1 4 4 0 0 1-.2.7 1.8 1.8 0 0 1-.9 1h-.5a1.2 1.2 0 0 1-.4 0l.7-.1a1.7 1.7 0 0 0 .8-.5l.2-.4.2-1v-.8a4 4 0 0 0-.1-.7 5.3 5.3 0 0 0-.7-1.4l-.4-.6c-.2-.3-.5-.5-.6-.8m-3 1.1.2-.2.2.1a.9.9 0 0 1 0 .3.4.4 0 0 1-.2 0 .4.4 0 0 1-.2-.2m.9 0 .7.1c.2 0 .2.2.2.3h-.1l-.6-.1-.2-.1V72zm-.5 1h.3v.5l.2 1-.1 1a3 3 0 0 1-.2.6v-2.4l-.3-.7zm.6 0 .5.2a.7.7 0 0 1 .3 0v.4a6.7 6.7 0 0 1-.4 1.7 2.5 2.5 0 0 1-.5 1l.2-.7a3.3 3.3 0 0 0 0-.6v-.7a4 4 0 0 0 0-.6l-.1-.6"/><path fill="#000" d="M47.4 2.8h.8a.7.7 0 0 0 .4-.4l.2-.6.1-.9V.6h-.2a1.8 1.8 0 0 0-.2.3 4 4 0 0 1-.4.4l-.7.4-.5.4-.6.5-.4.4-.2.2-.2.2.3-.5.7-.7.8-.5c.1-.1.3-.2.3-.4-.3 0-.7.2-1 .4l-1.1.4a8.4 8.4 0 0 0-1.2.6l-.8 1-.3.9a4 4 0 0 1-.3.4l.2-.6.3-.7c0-.2.2-.4.1-.7a.6.6 0 0 0-.2.1l-.3.3a7 7 0 0 1-.6.5q-.2 0-.3.2l-.7.4-.5.5-.2.7-.3.7-.4.5c0-.3.3-.5.4-.9l.2-.7c-.2 0-.4.3-.6.4l-1 .8-.6.5c-.2.2-.2.5-.3.7l-.3 1.4-.6 1.5-.3.5a.5.5 0 0 1 0-.3l.4-.6.2-.8.2-.9.2-.7.2-.7a.8.8 0 0 0-.4.3l-.5.5-.5.4-.4.2-.2.1-.3.3-.6.4-.5.8-.2.8-.1 1.1-.1.7-.3.8-.3 1c0 .3-.3.7-.5 1l.3-.7.5-1.6.2-.8v-.7c0-.4.2-.8.1-1.2a.5.5 0 0 0 0 .1l-.5.5a22 22 0 0 1-1.3 1.4l-.4.3-.3.3a2.2 2.2 0 0 0-.3.6l-.3.6.1-.6a.7.7 0 0 0-.2.1l-.4.5a3.5 3.5 0 0 0-.4.4l-.5.5-.3.5v.5l-.1 1.1-.2-.1v-1.4a.6.6 0 0 0-.2.1l-.1.3a3 3 0 0 1-.3.4l-.6.7-1.1 1.3c-.3.4-.7.8-.9 1.3l-.3.7-.1.3-.2.4v.2c.2.2.2.4.2.5a1.6 1.6 0 0 0-.8.5l-.2.3a1 1 0 0 1-.2.2v.1l-.3.1-.3.2-.6.6-1 1.3a4 4 0 0 0-.3.7c-.2.4 0 .8 0 1.3l.3 1-.1.4a2 2 0 0 1-.1-.2l-.3-1a4 4 0 0 1 0-.6v-.5a.5.5 0 0 0 0-.2l-.4.4c0 .3-.2.4-.3.7l-.4.6-.4.7-.2.4a5 5 0 0 0-.4.8 2 2 0 0 0-.1.6l-.1.3-.3.3a5 5 0 0 0-.4.5l-.3.7-.3.7c0 .1 0 .3-.2.3s-.1.2-.2.3l-.6.4-.4.6-.3.4a9 9 0 0 0-.5 1l-.1.7-.3.4-.6 1.2-.2.7a9 9 0 0 0 0 .7v.5a2.5 2.5 0 0 0 0 .5v.2l-.3.2a3.7 3.7 0 0 1 .1-.7v-.7l-.2.3-.2.5-.3.7-.3.7a4 4 0 0 0-.2.6 1.8 1.8 0 0 0 0 .5v.6c0 .5.2 1 .4 1.4l-.4-.5-.2-.7-.1-.6c-.2.2-.2.5-.3.7-.2.2-.2.5-.3.7l-.1.8.2.9c-.2-.1-.3-.4-.3-.5l-.2.4v.4a1.4 1.4 0 0 1-.2.3v.4l-.3.6a1.3 1.3 0 0 0 0 .8l.3.9.2.4v.2a1 1 0 0 1-.2-.3l-.4-.7-.2-.4h-.5c0 .2.2.3.3.5l.1.5v1.6l.2.8.3 1 .3.9.4.5.3.6a.9.9 0 0 1 .1.4 1.7 1.7 0 0 1-.2-.3L12 55a4 4 0 0 1-.3-.3l-.3-.4-.1.2.2.4c0 .2.3.3.4.5l.6.6v.3l.2.3a5 5 0 0 1-.8-.5l-.3-.6V56.2l.5.3a.7.7 0 0 1 .2.8c0 .5-.2 1-.4 1.5q.6 0 1.1.2h.4-.2l.2-.8.5-1.5v-.3h.4l.4.2.3.4.3.3c.4.2.9.3 1.3.1a.5.5 0 0 0 .2-.2c-.3 0-.5.1-.8 0a1.4 1.4 0 0 1-.6-.2 4 4 0 0 1-.4-.4.5.5 0 0 0-.1-.2h-.3a.2.2 0 0 1 0-.2.1.1 0 0 1 .1 0 .5.5 0 0 1 .3 0l.3.2 1 .2.7-.1c.2 0 .5 0 .8-.2l.3-.3.3-.6.3-.4a.2.2 0 0 0 0-.1.2.2 0 0 0 0-.2.8.8 0 0 0-.3 0c0-.1 0-.3.2-.4l.3-.2 1-.1c.3 0 .7-.2 1-.5l.4-.7.2-.6.3-.6.3-.6a.5.5 0 0 0-.3.1l-.4.3-.5.5a.6.6 0 0 1-.2.1c0-.2.3-.4.4-.6l.4-.4.5-.4a3.2 3.2 0 0 0 .7-.7l.5-1c0-.3.2-.5.3-.8l.1-.6.2-.6.3-.6.3-.2.3.2a.9.9 0 0 0 .3 0c.2 0 .3-.2.4-.3a.7.7 0 0 0 .3-.2c.3-.2.5-.6.7-.9l.5-.6.4-.5.4-.3a.3.3 0 0 0-.2 0l-.6.3a2.3 2.3 0 0 1-.7.4l.5-.4.6-.4c.2 0 .3-.2.4-.3l.4-.6.7.4 1 .2.6-.2c.2 0 .4-.2.6-.4l.3-.5-.4.2a.9.9 0 0 1-.3.2h-.3a2.2 2.2 0 0 1-1.3-.1 2 2 0 0 1-.2-.1.4.4 0 0 1-.1-.2h1.9l.2-.1.2-.1.5-.4.5-.5c0-.2.3 0 .4 0h.9l.7-.1 1-.1c.4 0 1-.3 1.4-.5l.5-.3.4-.4.4-.4.3-.6c.1-.3.4-.4.6-.5l.6-.9.5-.6.2-.6.2-.5c.2-1 .3-2.1-.3-3a2.1 2.1 0 0 0-.8-.6c-.4-.2-.8-.2-1.2 0l.6.2c.6 0 1 .5 1.3 1 .2.4.3.8.2 1.3 0 .4 0 .9-.2 1.3l-.2.6-.8 1.1-.5.4v-.9a2.8 2.8 0 0 0-.2-.7c-.3-.7-.8-1.2-1.4-1.4a1 1 0 0 0-.4 0 .6.6 0 0 0-.4.2c.4 0 .7 0 1 .2.4.2.6.4.7.8.3.5.3 1.2.2 1.8a1.9 1.9 0 0 1-.3.5l-.3.2a6 6 0 0 1-1.7.7 13 13 0 0 1-2.7.2h-.2l-.1-.4-.2-.3c.2 0 .3 0 .5-.2l.3-.2.4-.5v-.4l.2-.3a2.3 2.3 0 0 0 .4-.7 1.5 1.5 0 0 0 0-.5 1 1 0 0 0 0-.6h-.2l-.2.8-.2.4-.4.5a1.2 1.2 0 0 1-.6.3l-.6.1c-.3 0-.6 0-.8-.3q.2 0 .3-.2l.2-.4.2-.7c0-.1-.1 0-.2 0-.3 0-.6 0-.8-.2l-1-1a5 5 0 0 1-.5-.4l.4.2 1.5.8.5.2 1 .2h.6l.3-.3c.3-.2.5-.5.7-.9a.8.8 0 0 0 0-.6.5.5 0 0 0-.2-.3c0 .4 0 .8-.2 1.1 0 .2-.2.3-.3.5H33l-.6-.1a1.9 1.9 0 0 1-.6-.5 1.4 1.4 0 0 1-.2-.5c.1 0 .3 0 .4-.2a1 1 0 0 0 .4-.4L33 32c.1-.2.2-.3.1-.5l-.5.4h-1l-.6-.5-.5-.4 1 .3.6.1.8-.1a.9.9 0 0 0 .4-.4l.1-.3h.3l.4-.2.3-.1.3-.3.2-.5a2.5 2.5 0 0 0 0-.6l-.3.1a1.2 1.2 0 0 0 0 .3c0 .2 0 .4-.2.6a.6.6 0 0 1-.2.1.5.5 0 0 1-.2 0 1.2 1.2 0 0 1-.8-.2l-.4-.4h.4c.2 0 .5 0 .6-.2l.5-.6.3-.6a.6.6 0 0 1 0-.2h.4l.5.2h1.6c.7-.2 1.3-.5 1.8-1l.3-.5.4-.7c0-.2.2-.4.3-.5v-.3a.5.5 0 0 0-.2.2l-.4.6c-.3.5-.9.8-1.4 1a3.1 3.1 0 0 1-1.6.1H36a5 5 0 0 1-.8-.3l-.5-.3h.3a.6.6 0 0 0 .4-.2l.2-.1h.5a7 7 0 0 0 .8 0 5.2 5.2 0 0 0 1.7-.5q.3 0 .5-.3a.8.8 0 0 0 .2-.3.9.9 0 0 0 0-.3.2.2 0 0 0 0-.1.1.1 0 0 0-.1 0 1 1 0 0 0-.1.2.7.7 0 0 1-.1.3.6.6 0 0 1-.2.2c-.4.3-1 .3-1.4.3a5 5 0 0 1-.8 0l-.8-.2.2-.4.2-.6h.4l1-.4a1.8 1.8 0 0 0 .8-.8l-.2.1V23c-.3.1-.4.4-.6.5a1.4 1.4 0 0 1-.8.2H36l.4-.2.5-.5a.3.3 0 0 1 .2-.1h1.1l.5-.2a2.7 2.7 0 0 0 1.2-.6l.4-.4-.1-.3a3 3 0 0 0-.5-.4c-.1 0-.2-.1 0-.1l.2-.1c.3-.1.6-.2.9-.5.4-.3.5-1 .5-1.4a.4.4 0 0 0 0-.2.1.1 0 0 0-.1 0 .5.5 0 0 0 0 .2 2 2 0 0 1-.4.9c0 .2-.2.4-.4.5a1.1 1.1 0 0 1-.7 0c-.8 0-1.3-.8-1.7-1.5 0 0-.1 0 0-.2l.6.2.4-.3.4-.5.3-.5.4-.5v-.4l-.3.2-.3.2c-.2.2-.4.2-.6.2a2 2 0 0 1-.9 0l-.7-.5-.5-.2a.7.7 0 0 0 .1 0h.5q.3.2.7.2a5.3 5.3 0 0 0 1.6-.1l.6-.3c.4-.3.5-1 .8-1.4l.2-.4a2.3 2.3 0 0 1-1.2.5 2.4 2.4 0 0 1-1.5-.3s-.3-.1-.2-.2l.4.1h.3c.5.2 1.1.2 1.6 0l.3-.1h.4l.3-.3.5-.1a1.1 1.1 0 0 0 .4-.3l.5-.7.2-.4-.2-.2-.3.5a1.4 1.4 0 0 1-.4.3h-.5a3.6 3.6 0 0 1-1.2-.2 2.8 2.8 0 0 1-.5-.3l-.7-.5a4 4 0 0 0-1.3-.6h-.8a.5.5 0 0 1 .2-.1h.7c.3 0 .5.2.8.3l.6.2.5.3 1.4.3a1.3 1.3 0 0 0 1-.5l.5-.6.2-.4.3-.2.5-.5.3-.6v-.2l-.3.4a1.8 1.8 0 0 1-.5.5l-.4.1-.4.1v-.1l-.3.2h-.4l-.6-.2.5-.3c.3-.1.5-.2.6-.5l.4-.4h.7l.5-.3c.3 0 .5-.2.6-.5l.4-.5.1-.4.4-.2c.2 0 .3-.2.4-.3l.6-.7c.1-.2.3-.4.3-.7l-.7.3h-1.2a8 8 0 0 1-.9 0L44 6h.7c.6-.1 1.3 0 2-.2l.7-.4c.2-.2.5-.5.5-.8a2 2 0 0 0-.3.1.5.5 0 0 1-.3 0c.2-.2.6-.3.8-.6V4l-.5.4-.7.1q-.2.1-.4 0a1.8 1.8 0 0 1-.8 0c.3-.2.6-.1.9-.2h.5l.7-.2a1.6 1.6 0 0 0 .4-.3l.5-.5c0-.2.3-.4.3-.7l-.5.3c-.2.2-.5.2-.7.2l-.7-.1.2-.1h.2m-14.5 37 1-.1 1.5-.2 1-.3c-.4.4-1 .6-1.5.7a7.4 7.4 0 0 1-1.3.1c-.4 0-1 .1-1.3-.1zm-3.7-22.2h.2v.7a.2.2 0 0 1-.2.1 3 3 0 0 1 0-.8M17.5 34.1c0-.2.2-.4.3-.5v.1l-.2.6v.3a.7.7 0 0 1 0-.5zM15.8 37h.1l.2.9.2.3a.6.6 0 0 1 0 .1l-.3.4c-.2-.3-.2-.6-.2-.9a4.4 4.4 0 0 1 0-.8zm-2 18.1-.3.8a10 10 0 0 0-.2 1 8 8 0 0 1-.2.6 40 40 0 0 0-.3.9v.4c-.2.1-.3 0-.4-.1l.1-.4.2-.7.2-.8.5-1.6.5-1.5.3-.9.5-1.2c0-.3.2-.5.3-.8l.5-1.3c0-.2 0-.4.2-.6l.2-.6.4-1 .3-.8.2-.5.3-.9.2-.3-.2.7a4 4 0 0 0-.2.7l-.1.3-.2.5c-.2.2-.2.5-.3.7l-.2.7-.3.6-.3.9-.3.7-.1.5c-.2.6-.5 1.1-.6 1.7l-.3.8a52 52 0 0 0-.5 1.5zm14.4-14.6-.9.2h-.5l-.5-.4-.5-.3a6 6 0 0 0-.6-.3l-.5-.2c-.2 0-.3-.3-.5-.3h-.4c-.3.2-.8.2-1.1.2-.2 0 0 .2-.2.2l-1.5-.4c-.5 0-1 .8-1.4 1-.1.1.2.1.1.1l.5-.4.7-.2c.5-.2 1-.2 1.5-.1l.6.1h.5l.7-.4h.8l.7.1.6.2.4.1.8.2.7.2c.2 0 .4 0 .6.2l-.6.2zm2.3.7a2 2 0 0 1-.4.1h-1.3l.2-.5.3-.5h.2l.2.1.5.1.4.1h.3a1 1 0 0 1 .2.1v.2h-.2l-.4.3m1-3.4h.8l.5-.2c.2-.1.3-.3.5-.3 0 .3-.4.6-.7.7a1.3 1.3 0 0 1-.6.2c-.4 0-.7 0-1-.2a.8.8 0 0 1-.3-.2h.8zm-1.9-.2.3.1.7.5c.1.2.4.2.6.3l.8.2v.5H31.3l-.7-.2a15 15 0 0 1-2.1-.7A68 68 0 0 1 27 38l-1.5-.5a2 2 0 0 1-.4-.1h.8l.7.2h.8l.8.2h.5l.8-.1M34 28a.8.8 0 0 1-.4-.1l-2.2-1.6-.5-.4.7.2 1.4.8 1.2.6.3.1a.3.3 0 0 1 0 .2.7.7 0 0 1-.5.2z"/><path fill="#000" d="M10.6 58.3h1.2l1.2.3h.4l.4.2.2.2.2.2a.3.3 0 0 1 0 .4 1.2 1.2 0 0 1-.4.1c0 .2.2.4 0 .5 0 .2-.2.2-.3.2v2.1a7 7 0 0 0 1.1 3.5l.5.6.1.2.2.2.3.3.8.7 1.2 1 .7.6.5.4q.7.5 1.2 1.2a5 5 0 0 1 1.4 3.5c0 1.1-.4 2.4-1.3 3.1l-.2.2a1.3 1.3 0 0 1-.6.3h-2l-4.2.1H3.4a2.2 2.2 0 0 1-.7-.2c-1-.4-1.7-1.4-2-2.5a4.6 4.6 0 0 1 0-2c.1-.6.4-1.1.7-1.6a9.4 9.4 0 0 1 1.1-1.5c.9-1 2-1.6 3-2.4A12 12 0 0 0 7.7 66l.3-.6a6 6 0 0 0 .4-.7c.4-1.3.6-2.7.4-4l-.4-.4v-.5c-.2 0-.4-.1-.5-.3a.5.5 0 0 1 0-.4c0-.2.2-.3.3-.4l.7-.2 1.7-.2m1.3.3v.1l.7.1v-.1c-.2-.1-.5-.2-.7-.1m-3.7.6c0 .2 0 .2.2.2a2.3 2.3 0 0 1 0-.5l-.2.3m5.7.3v-.2c0-.1 0-.2-.2-.3l.2.5m-4 0-.7.1a1 1 0 0 0-.6.3.3.3 0 0 0 0 .3.3.3 0 0 0 .1.1.3.3 0 0 0 .2 0c0-.2-.1-.3 0-.4l.4-.1.7-.1h1.4c.5 0 1 0 1.5.2l.3.1v.3l.3-.1.1-.2-.2-.2a3.6 3.6 0 0 0-.8-.1l-1.3-.2a4.6 4.6 0 0 0-.8 0h-.7m2.5 1.4v1a7 7 0 0 0 0 .8v.5c0 .5 0 1 .2 1.4 0 .8.3 1.5.6 2.2 0 .3.2.6.4.9l.7 1.3.7 1.4.1.4.2.1a.7.7 0 0 0 0-.3l-.6-1.3-.4-.6-.7-1.3-.3-.9a9.2 9.2 0 0 1-.5-1.7 22 22 0 0 1-.2-1.2v-3.2c-.2.1-.2.3-.2.5m.4-.4v.8c0 .1-.1.3 0 .4v1.8l.2 1 .3 1.2.3.7.4 1 1.1 2 .3.6.2.5.2.4a.2.2 0 0 0 .1.1l.6.1h.5c0-.4-.2-.8-.3-1.1l-.4-.8-.8-1-.5-.5a9.4 9.4 0 0 1-1.3-2.3l-.2-.5a7 7 0 0 1-.3-1v-3.2a.5.5 0 0 0-.4-.2m-3.1 2.4a.1.1 0 0 0-.1 0v.4A8.5 8.5 0 0 1 9 65l-.3 1a7 7 0 0 1-.4.9 1 1 0 0 0-.2.4h.3l.3-.6.5-1.2.3-1.3c0-.4.2-.8.1-1.2l-.1-.1M3 70.7l-.9 1a5.3 5.3 0 0 0-.6 1L1.4 74v.6c0 .6 0 1.1.3 1.6l.5.6c0 .2.2.3.4.4l.1-.1a4 4 0 0 0-.1-.2 2.1 2.1 0 0 1-.5-.6 6 6 0 0 1-.2-.6 3.7 3.7 0 0 1-.2-1v-1L2 73l.4-.9.2-.4.6-.8c.2-.2.4-.3.4-.5-.2 0-.3.2-.4.4m15.3.2.6.8.5.6.7 1.4.1.7v1l-.2.8-.3.4a1.8 1.8 0 0 1-.7.5l-.8.2h.4l.6-.1a1.9 1.9 0 0 0 1-1l.2-.6v-1a3.7 3.7 0 0 0-.3-1.5l-.7-1.2-.6-.6-.5-.4M15.3 72l.1.2h.3a.8.8 0 0 0-.1-.3l-.1-.1-.2.2m.9-.1c-.1 0 0 .2 0 .2l.2.2.6.1h.1L17 72a3 3 0 0 0-.8-.2m-.6 1 .2.9.1 1.9v.4a3 3 0 0 0 .1-.6l.1-1a8 8 0 0 0 0-1 2 2 0 0 0-.2-.4l-.3-.2m.7.2v1.2l.1.8v.5l-.2.7.5-1a6.5 6.5 0 0 0 .4-1.7v-.3a.7.7 0 0 0-.2 0l-.6-.2"/></svg>